<svg id="Layer_1" data-name="Layer 1" xmlns="http://www.w3.org/2000/svg" viewBox="0 0 34.16 66.1"><title>A</title><path d="M79.53,130.55c-.31,1.68-.85,2.77-.6,3.61,1.6,5.31-2.3,8.22-5,11.58-.52.66-2.41,1.06-3,.64a3.36,3.36,0,0,1-.82-3c4-11.2,7.85-22.46,12.37-33.44,3.58-8.72,5.65-18.16,11.7-25.78.35-.45.23-1.25.55-1.75.48-.74,1.26-2,1.73-1.92a4.33,4.33,0,0,1,2.95,1.65,14.32,14.32,0,0,1,1.46,5.37c.84,12.78,1.51,25.58,2.32,38.37.21,3.33.9,6.64,1,10,0,1.29-.84,3.58-1.61,3.73-2.41.45-3.17-1.35-2.94-3.55.34-3.2-1.19-4-4.22-4-2.66,0-5.3-1.1-8-1.36S82.28,130.55,79.53,130.55Zm20-2.92c-.16-2.61-.37-4.94-.42-7.27-.23-9.11-.35-18.21-.67-27.31,0-1-1.08-2-1.65-2.93-.72.79-1.73,1.46-2.11,2.39-1.77,4.35-3.34,8.77-5,13.15-1.36,3.56-2.75,7.1-4.12,10.65a48.16,48.16,0,0,1-2.36,6.06c-1.61,2.91-1,4.91,2.42,5.17C90.2,127.9,94.79,127.63,99.58,127.63Z" transform="translate(-70.06 -80.45)"/></svg>