<svg id="Layer_1" data-name="Layer 1" xmlns="http://www.w3.org/2000/svg" viewBox="0 0 43.88 73.3"><title>B</title><path d="M96.16,135.65c1.26-6.06,3-6.88,7.89-4.28,3,1.57,6.2,2.71,9,4.55,6.65,4.37,7.58,11.32,2.55,17.58-5.92,7.36-13.85,10.42-23.12,10.85-6.53.31-10.18-4.48-14.65-7.81-.59-.44-.58-2.08-.4-3.09,1-5.4,2.2-10.75,3.13-16.16s1.64-11,2.5-16.49a8.21,8.21,0,0,1,1-2.62c.08-.12,1.43.14,1.53.44a9,9,0,0,1,.26,2.75,48.48,48.48,0,0,1-.22,6.38c-.86,6-1.57,12.09-3,18C80.17,156.62,86,163.2,96.83,160.9c7.52-1.59,13.78-5.47,17-12.71.81-1.84.52-5.48-.77-6.7-3.81-3.61-8-7.43-14.18-5.43C98.1,136.31,97.08,135.81,96.16,135.65Z" transform="translate(-74.9 -91.07)"/><path d="M84.56,97.44c3.64-6.42,11-8,18.08-4.73,10.55,4.84,14,13.05,12.63,21.35-.9,5.55-8.78,13-13.53,12.84,1.71-2.46,2.79-5.07,4.72-6.65,9.29-7.57,4.84-19.38-5-24a13.63,13.63,0,0,0-12.21-.17A31.38,31.38,0,0,1,84.56,97.44Z" transform="translate(-74.9 -91.07)"/><path d="M81.77,100.43a27.38,27.38,0,0,1-2,5.12,6.67,6.67,0,0,1-3.12,2.15c-.43.19-1.8-.55-1.78-.81.07-1.27.08-2.91.85-3.69a35.94,35.94,0,0,1,5.33-3.77Z" transform="translate(-74.9 -91.07)"/></svg>