<svg id="Layer_1" data-name="Layer 1" xmlns="http://www.w3.org/2000/svg" viewBox="0 0 40.07 46.44"><title>C</title><path d="M118.22,122.56c-8.2,10.12-22.24,14.81-33.78,8.5-5.43-3-7.49-9.32-5.61-15.5,3.23-10.65,10.55-18,19.61-23.66,3.85-2.38,8.66-3.39,13.18-4.39,1.25-.27,3,1.76,4.52,2.73-1.16.76-2.39,2.26-3.47,2.16-12-1.11-18.8,6.8-25.23,14.9a27.91,27.91,0,0,0-4.63,9.63c-1.62,5.74.83,9.66,6.49,11.81a22.56,22.56,0,0,0,16.08,0c3.49-1.27,7.54-1.79,9.91-5.41C115.71,122.71,117.22,122.8,118.22,122.56Z" transform="translate(-78.15 -87.49)"/></svg>