<svg id="Layer_1" data-name="Layer 1" xmlns="http://www.w3.org/2000/svg" viewBox="0 0 42.85 60.63"><title>D</title><path d="M95.91,177.14c-.89-2.67.83-4.58,2-7.09,2.19-4.49,2.77-9.74,4.36-14.56,2.21-6.67,4.7-13.25,7.16-19.83.7-1.86,1.73-3.6,2.61-5.39l1.1,1.74-1.92-6,4.73.75c2.08-2.54,4-5.41,6.41-7.7,4.62-4.32,10.66-2.86,13.24,3,3.63,8.33,3.66,16.66,1,25.45A60,60,0,0,1,125.92,167c-5.23,6.66-12.33,9.83-20.73,10.11C102.24,177.22,99.28,177.14,95.91,177.14Zm39.69-41c-1-3.69-1.76-7.61-3.12-11.32-1.64-4.46-5.63-4.86-9-1.51-2,2-2.94,4.65-4.5,6.58-4.78,5.94-6.19,13.17-9.18,19.77-1.22,2.68-2.43,5.38-3.43,8.15-1.63,4.49-2.67,9.24-4.75,13.5-1.44,3-.35,3.7,1.93,3.37,3.64-.53,7.52-1,10.71-2.7C128.52,164.56,132.83,151,135.6,136.16Z" transform="translate(-95.67 -116.54)"/></svg>