<svg id="Layer_1" data-name="Layer 1" xmlns="http://www.w3.org/2000/svg" viewBox="0 0 43.56 54.07"><title>E</title><path d="M111.74,146.34a.87.87,0,0,0-.37-.53c-6.93-2.88-5.87-4.48-2.28-9.65a39.05,39.05,0,0,1,18.13-14.27,9,9,0,0,0,2.74-2.13c.6-.61.86-1.88,1.5-2.07a17.75,17.75,0,0,1,5.63-.83c.53,0,1.62,2.39,1.37,2.65-1.09,1.16-2.89,3-3.89,2.7-5.44-1.6-7.62,3.19-11,5.32-3.74,2.35-6.94,5.55-10.37,8.4a2.09,2.09,0,0,0-.41.62q-1.15,2-2.29,4c1.75.67,3.52,1.95,5.24,1.88,3.37-.14,6.7-1,10-1.59,1.15-.19,2.31-.24,3.47-.36l.5,1.45c-3.69,1.66-7.26,3.67-11.08,4.89a38.64,38.64,0,0,0-18.24,11.69c-3,3.5-2.27,6.78,2.09,8a32.11,32.11,0,0,0,10.23,1.12c5.21-.28,10.39-1.2,15.57-1.93,2-.28,4-.76,6.8-1.3-.75,1-1.11,1.9-1.73,2.11-4,1.39-7.92,3.25-12,3.75-6.23.75-12.59.52-18.89.69a1.21,1.21,0,0,1-.71-.21c-2.42-2-6.47-3.78-6.79-6.07-.4-2.85,1.57-6.88,3.82-9.06C102.55,152,107.32,149.4,111.74,146.34Z" transform="translate(-94.94 -116.85)"/></svg>