<svg id="Layer_1" data-name="Layer 1" xmlns="http://www.w3.org/2000/svg" viewBox="0 0 85.9 68"><title>Fonts</title><path d="M94.33,68.49c6.59-3.29,10.36-10.85,18.18-12.07,5.65-.88,11.43-.87,17.15-1.26,13.81-.93,27.63-1.79,41.43-2.85,2.34-.18,4.61-1.21,7.33-2-.64,3.54-2.74,4.27-5.21,4.54-9.17,1-18.32,2.22-27.51,3-9.57.76-19.18,1.42-28.77,1.4-5.84,0-9.66,3.22-13.82,6.23-2,1.45-3.87,3.07-6,4.38-.6.37-1.71-.08-2.59-.15Z" transform="translate(-92.53 -50.35)"/><path d="M121,76.61c-.53,2.38-.64,5-1.66,7.09-4.82,10-9.9,19.94-14.85,29.92-.54,1.1-.59,2.51-1.3,3.46-.51.69-1.72.87-2.62,1.27-.23-.89-.93-2-.62-2.64,2.7-5.53,5.68-10.92,8.38-16.46,2.48-5.06,4.68-10.26,7.08-15.36,1.23-2.62,2.63-5.16,4-7.74Z" transform="translate(-92.53 -50.35)"/><path d="M122.05,97.54a34.45,34.45,0,0,1,5.88-1.48c6.53-.47,13.2.51,19.49-2.21.57-.24,1.38.1,2.18.18-2.69,4.82-19.9,7.59-27.32,4.58Z" transform="translate(-92.53 -50.35)"/><path d="M106.15,77.44c1.1,2.72-.9,5.42-3.93,4.64a31,31,0,0,1-8.32-3.86c-.9-.55-1.46-2.41-1.36-3.6s1.2-2.37,1.87-3.55c.78,1.13,2.12,2.2,2.26,3.4C97.26,79.5,100.86,80.7,106.15,77.44Z" transform="translate(-92.53 -50.35)"/></svg>