<svg id="Layer_1" data-name="Layer 1" xmlns="http://www.w3.org/2000/svg" viewBox="0 0 48.9 46.9"><title>G</title><path d="M111.62,106.57c-12.2,3.08-19.58,11.78-27.35,19.8a46.68,46.68,0,0,0-8.21,11.88c-2.61,5.31.61,9.94,6.47,9.83,4.68-.09,9.35-.69,14.45-1.09-.74.78-1.42,2.15-2.38,2.38-4.43,1.08-9.18,3.19-13.38,2.44-9.53-1.7-12.64-8.19-7.33-16.73,4.31-6.94,10.44-12.82,16.16-18.79,3.52-3.66,7.8-6.59,11.72-9.87C103.55,104.93,109.17,104.59,111.62,106.57Z" transform="translate(-71.31 -105.19)"/><path d="M118.69,149.48c-1.22.93-1.92,1.79-2.8,2-1.34.39-3,.85-4.15.36-.88-.37-1.52-2.11-1.65-3.31-.41-3.89,2.51-6.25,4.55-9,.63-.84,1.24-1.68,2.12-2.87a9.19,9.19,0,0,0-9.89,1.34c-2.3,1.82-3.51,1.78-5-.27-5.4,3.82-8.35,4.11-10.85,1.27,2.06-3.06,2.06-3.06,7.52-1.12L96,134.14c3.14-.46,5.84-1.68,7.91-1,4.36,1.45,8-.2,11.88-1.25,1.37-.36,3,.14,4.47.25a13.62,13.62,0,0,1-.69,3.79c-1.82,3.65-3.87,7.18-6.11,11.27Z" transform="translate(-71.31 -105.19)"/></svg>