<svg id="Layer_1" data-name="Layer 1" xmlns="http://www.w3.org/2000/svg" viewBox="0 0 42.42 49.65"><title>H</title><path d="M127.91,152.47c-5.88.95-11.25,1.36-16.26,2.89-1.69.51-2.68,3.82-3.67,6-1.48,3.25-2.6,6.66-4.07,9.92-.29.65-1.45.9-2.22,1.34-.32-.93-1.15-2.05-.88-2.75,1.21-3.12,3-6,4.11-9.18,3.41-9.43,6.63-18.93,9.88-28.41.92-2.67,1.58-5.43,2.56-8.07.2-.54,1.3-.75,2-1.11.5,1.13,1.59,2.39,1.37,3.36a78.61,78.61,0,0,1-2.8,8.48c-1.89,5.33-3.81,10.65-5.82,16.24,4.59-.5,8.71-1.51,12.74-1.25,6.09.4,6-4.69,7.81-7.93s2.87-6.83,4.25-10.27c1.07-2.66,2.07-5.35,3.26-8,.21-.46,1.68-.88,1.74-.8.55.88,1.47,2,1.24,2.79a59.19,59.19,0,0,1-2.8,6.89c-1.27,2.92-3.28,5.72-3.68,8.74-.56,4.36-3.05,7.55-4.77,11.25-1.93,4.19-2.78,8.88-4.33,13.26-.41,1.16-1.68,2-2.55,3-.42-1.15-1.41-2.44-1.16-3.41C124.89,161.45,126.3,157.49,127.91,152.47Z" transform="translate(-100.75 -122.95)"/></svg>