<svg id="Layer_1" data-name="Layer 1" xmlns="http://www.w3.org/2000/svg" viewBox="0 0 57.93 79.34"><title>I</title><path d="M125.8,113.81c4.8,1.06,7-1.76,8.66-4.63,3.58-6.2,6.83-12.58,10.09-19,3.63-7.11,8.43-13.69,10-21.75a5.55,5.55,0,0,1,1.3-2.66,2.9,2.9,0,0,1,2.26-.48c.32.06.81,1.27.63,1.73-1.8,4.8-3.6,9.61-5.65,14.31A171.79,171.79,0,0,1,145.74,97c-3,5.37-6.69,10.38-10,15.61s-6.29,10.71-9.78,15.84c-3.27,4.82-6.85,9.44-10.58,13.93-3.05,3.67-6.79,2.07-10.24.5a31.65,31.65,0,0,1-4.26-2.81l.39-1.14c1.58.5,3.35.71,4.71,1.57,3.2,2,5.86,1.3,7.87-1.44,4-5.52,7.89-11.17,11.65-16.88.56-.85.24-2.31.27-3.49C125.83,117.24,125.8,115.78,125.8,113.81Z" transform="translate(-100.9 -65.29)"/></svg>