<svg id="Layer_1" data-name="Layer 1" xmlns="http://www.w3.org/2000/svg" viewBox="0 0 56.75 61.97"><title>J</title><path d="M120.29,97.66c-2.53.57-5.05,1.18-7.59,1.7a30.23,30.23,0,0,1-6.54,1c-.84,0-1.64-1.67-2.45-2.57.87-.61,1.67-1.56,2.64-1.79,6.71-1.61,13.43-3.16,20.2-4.52,1.33-.26,2.84.37,4.28.59-.54,1.13-.83,3-1.66,3.27-6.26,2.22-8.12,8.2-11,13-5.09,8.64-7.85,18.29-10.67,27.92-1.48,5.07-2.79,10.57-7.57,14.11-3.17,2.36-6.52,3.75-10.42,2.54-6.52-2-12.6-4.57-15-12-1-2.92-.24-5.64,1.86-6.56,5.76-2.51,11.86-4.23,17.84-6.21.21-.07.57.33,1.45.88A41.55,41.55,0,0,1,92,131.19q-6.15,2.69-12.34,5.23c-2.43,1-2.9,2.12-1.79,4.85,1.42,3.49,3.28,5.57,7.08,5.9a7.37,7.37,0,0,1,2.65,1.28c5.21,3,11,1.38,13.13-4.34,2.56-6.72,4.09-13.84,6.74-20.52,3.43-8.67,6.45-17.65,13.56-24.4Z" transform="translate(-74.08 -91.43)"/></svg>