<svg id="Layer_1" data-name="Layer 1" xmlns="http://www.w3.org/2000/svg" viewBox="0 0 34.53 57.55"><title>L</title><path d="M83,132.75c6.63,3.95,18.79,3.19,25.3-1.47.48-.34,1.46,0,2.21.06-.49,1.51-.61,4-1.54,4.36A56.94,56.94,0,0,1,96.49,139c-3.53.46-7.21-.42-10.81-.31-2,.06-3.93,1-5.91,1.45-1.25.29-2.54.45-3.82.67.09-1.07-.12-2.28.32-3.18C82.52,124.8,88.93,112,95.12,99.17c1.94-4,3.28-8.35,4.94-12.51a8.31,8.31,0,0,1,1.55-2.86,2.43,2.43,0,0,1,2.29-.39,2.38,2.38,0,0,1,.64,2.21c-2.66,6.38-5.43,12.71-8.21,19-.4.91-1.13,1.66-1.55,2.56C90.86,115.63,87,124.06,83,132.75Z" transform="translate(-75.95 -83.27)"/></svg>