<svg id="Layer_1" data-name="Layer 1" xmlns="http://www.w3.org/2000/svg" viewBox="0 0 67.22 69.64"><title>M</title><path d="M135.35,82.72c-1.38,1-3.2,1.81-4.07,3.18-2.66,4.17-4.94,8.57-7.41,12.87-.49.84-1.17,1.57-1.71,2.39-1.94,3-3.49,6.3-5.86,8.88a69.38,69.38,0,0,1-10.77,9.56c-2.07,1.47-4.39-.43-4.87-2.59a49.4,49.4,0,0,1-1.17-10.91c0-4.78.64-9.55,1-14.33l-1.1-.19c-1.31,3.43-2.5,6.91-4,10.27-2.22,5.14-4.51,10.26-7,15.29s-5.25,10-7.9,15.07c-.28.53-.54,1.29-1,1.48a28.29,28.29,0,0,1-3.65,1.06c0-1.17-.38-2.55.11-3.46,3.32-6.11,7.17-11.95,10.18-18.21,3.08-6.43,5.4-13.23,8-19.88.36-.89.45-2.52.94-2.64,5-1.19,4.72-5.9,6.54-9.23.59-1.09,1.91-1.78,2.89-2.65.33,1.4,1.23,2.94.91,4.16-2.58,9.65-2.75,19.49-2.58,29.35,0,1,.94,2.82,1.53,2.86a6.05,6.05,0,0,0,3.9-1.27,47.47,47.47,0,0,0,6.16-6.28c2.92-3.64,5.71-7.39,8.31-11.27,5.23-7.8,10.23-15.76,15.52-23.52.79-1.16,2.61-1.63,4-2.42.22,1.43.94,3,.56,4.26-1.24,4-3,7.88-4.34,11.87-4.66,13.59-12.63,25.59-18.4,38.63-1.47,3.31-4.23,7-1.59,11.24.34.55-1.43,2.4-2.22,3.64-1-.85-2.84-1.82-2.75-2.55.42-3.65.71-7.55,2.24-10.79,5.05-10.67,10.7-21,15.93-31.63,1.78-3.62,3-7.53,4.42-11.3Z" transform="translate(-75.77 -70.29)"/></svg>