<svg id="Layer_1" data-name="Layer 1" xmlns="http://www.w3.org/2000/svg" viewBox="0 0 74.15 76.7"><title>N</title><path d="M106,147.62c1.23-6,2.55-11.66,3.54-17.41,1.08-6.26,1.89-12.56,2.69-18.86.1-.77-.61-1.65-1-2.47-1,.54-2.42.83-2.9,1.66-2.87,5.07-5.4,10.33-8.28,15.39-3.84,6.74-7.79,13.42-12,20-.55.86-2.64.74-4,1.08a14.63,14.63,0,0,1,.95-3.83q5.91-10.37,12-20.58c4.38-7.34,8.9-14.6,13.26-22,1.64-2.77,2.92-5.76,4.58-8.53.53-.87,1.74-1.33,2.64-2,.43,1,1.29,2,1.2,2.88a13.77,13.77,0,0,1-1.4,4.6c-2.86,6-1.37,12.52-2.23,18.76-1.14,8.24-2.45,16.46-3.67,24.69-.42,2.83-1,5.66-1.13,8.5,0,.94.87,2.66,1.5,2.73a3.69,3.69,0,0,0,3-1.45q15.66-27,31.1-54.14c2.71-4.73,5.29-9.54,8.16-14.17.56-.91,2.17-1.16,3.3-1.72.28,1,1.1,2.26.77,3-1.43,3.2-3.12,6.29-4.84,9.36q-3.44,6.12-7.06,12.15c-5.43,9-10.86,18-16.41,27-2,3.24-4.4,6.24-6.53,9.41a8.31,8.31,0,0,0-.94,2.71,18.94,18.94,0,0,1-9.14,12.22c-2.78,1.69-4.65.94-5.68-2.23C106.9,152.14,106.52,149.8,106,147.62Z" transform="translate(-84.15 -80.78)"/></svg>