<svg id="Layer_1" data-name="Layer 1" xmlns="http://www.w3.org/2000/svg" viewBox="0 0 41.75 41.91"><title>O</title><path d="M70.16,79.16l-2.58,14c3.52-.16,7.47.4,11-.63,10.61-3.13,16.75-11.17,21.08-20.85a4.68,4.68,0,0,0,.62-2.14c-.22-2.28,0-5.06-1.21-6.61-.68-.86-4.06.08-6.06.71a97.32,97.32,0,0,0-13.6,5c-2.06,1-3.24,3.67-5.07,5.3a19.74,19.74,0,0,1-4.13,2.24l-1.18-1c.72-1.8,1.08-3.87,2.22-5.32,2.91-3.69,5.8-7.54,9.39-10.48,2.73-2.24,6.42-3.55,9.89-4.56,2.36-.68,5.08-.13,7.73.32-4.82,3.16-12.34.72-15.46,8.06a11.7,11.7,0,0,0,9.89-2.5c2.92-2.2,5.89-2,8.86-1.36a4.68,4.68,0,0,1,2.84,3.32c.51,6.27.3,12.43-4.75,17.32-2.67,2.58-4.92,5.58-7.39,8.37C85.46,96,76.85,97.54,67.35,95.75c-3.68-.69-5.54-4.75-4.08-8.35.94-2.31,2-4.54,3.08-6.8C67.56,78,69.17,78.55,70.16,79.16Z" transform="translate(-62.77 -54.51)"/></svg>