<svg id="Layer_1" data-name="Layer 1" xmlns="http://www.w3.org/2000/svg" viewBox="0 0 43.79 63.67"><title>P</title><path d="M95.81,95.81c2-4.46,4-8.88,5.82-13.38,1.27-3.09,2.38-6.25,3.44-9.42a124.13,124.13,0,0,0,4.17-13.44c.85-4,.67-8.16,1.18-12.22.15-1.26,1.08-2.43,1.66-3.64.74,1.11,1.52,2.18,2.19,3.33a28.06,28.06,0,0,1,1.28,3c1-1.47,1.79-2.34,2.35-3.31,1.91-3.3,3.53-6.79,5.7-9.9a7.59,7.59,0,0,1,8.15-3.36A7.83,7.83,0,0,1,138,39.62c3.35,12.33,1.59,23.64-6.67,33.61-4.66,5.62-11.09,5.32-17.51,4.69-1.7-.16-3.38-.41-4.71-.58-3,6.52-5.59,12.62-8.6,18.53-.42.84-2.68.74-4.08,1.08Zm40.41-43c-1-5.17-1.67-9.47-2.8-13.64-.72-2.64-2.92-3.17-4.95-1.35a37.67,37.67,0,0,0-5.83,6.47,54.8,54.8,0,0,0-5.46,9.55c-2.46,5.76-4.52,11.7-6.65,17.6-.8,2.22.28,3.6,2.47,4.15,5.24,1.34,16.41-3.3,18.52-8.27S134.79,57.33,136.22,52.82Z" transform="translate(-95.81 -33.28)"/></svg>