<svg id="Layer_1" data-name="Layer 1" xmlns="http://www.w3.org/2000/svg" viewBox="0 0 54.08 55"><title>Q</title><path d="M140.29,122.9a18.3,18.3,0,0,1-1.87,2.91c-3.92,3.74-14.79,3.81-18.61-.06-2.59-2.63-5.33-1.12-8.08-1-3.81.21-7.63.58-11.43.48-3.47-.09-6-2-7.78-5.05-2.85-4.84-6.15-9.49-6.3-15.35a23.92,23.92,0,0,1,1-7.58c.36-1.16,2-2.09,3.29-2.75A53.35,53.35,0,0,1,96,92.4c-1-6.89,4-10,8.19-13.39,2-1.61,4.57-2.53,6.89-3.75,6.82-3.58,14.3-1.05,17.65,5.83,4.73,9.69,6.26,19.44.72,29.33-1.67,3-3.69,5.73-5.5,8.61-.56.9-1.6,2.27-1.3,2.78.6,1,1.93,2.24,3,2.28a69.52,69.52,0,0,0,8.87-.5C136.19,123.45,137.82,123.2,140.29,122.9ZM107.41,94.32c-2.53.48-5.09.84-7.59,1.46-1.79.45-3.45,1.53-5.25,1.83-4.67.77-6.65,4.15-4.75,8.44.75,1.68,1.06,3.62,2.05,5.13,2.74,4.14,4.45,10,9.72,10.95,4.77.81,10-.77,15-1.49.36,0,.73-1.61.71-2.46-.07-3.64-.87-7.35-.35-10.88C118.25,98.16,116.36,95.34,107.41,94.32Zm14.91,21.61c7.08-9.37,8.15-19.18,4.27-29.59-.81-2.17-1.82-4.63-3.51-6s-4.69-2.67-6.62-2.16a39,39,0,0,0-12.06,5.39c-2.4,1.66-3.65,5-5.75,8a47.78,47.78,0,0,1,5.36-.33,90.73,90.73,0,0,1,12,1.13,6.12,6.12,0,0,1,3.86,3.5c1.27,3.84,2.39,7.69.78,12C119.81,110.21,118.39,113.69,122.32,115.93Z" transform="translate(-86.21 -73.64)"/></svg>