<svg id="Layer_1" data-name="Layer 1" xmlns="http://www.w3.org/2000/svg" viewBox="0 0 45.46 60.79"><title>R</title><path d="M110.92,85c-1.74,4-5.24,5-8.6,1.3-4.27-4.64-8.74-8.74-14.44-11.63-3.16-1.6-3.53-4.41-.93-7.06a39.94,39.94,0,0,1,8.63-6.28c5.6-3.23,10.37-7.24,13.73-12.8,2.84-4.68.73-12.93-4-15.48-1-.54-3-1-3.49-.47-2.53,2.5-6.61,3.13-7.84,7.35-.93,3.21-3.25,6-4.67,9.09-2.6,5.67-4.91,11.47-7.49,17.14-2.37,5.19-4.8,10.36-7.5,15.39-.51.94-2.38,1.16-3.62,1.71-.3-1.16-1.18-2.57-.8-3.44,1.66-3.85,3.88-7.47,5.53-11.33,2.47-5.82,5.19-11.63,6.78-17.71,1.49-5.7,1.67-11.74,2.34-17.64.23-2,2.28-2.71,4.61-1.47,1.29.69,2.51,1.51,4,2.41,1.6-1.71,2.75-3.68,4.47-4.67,6.65-3.8,13.49-.76,16.26,6.86,2.91,8,1.44,13.63-5.68,20.36-5.19,4.9-11.33,8.8-17.71,13.64,3.36,2.2,7,4.37,10.37,6.81S107.26,82.09,110.92,85Z" transform="translate(-69.77 -27.76)"/></svg>