<svg id="Layer_1" data-name="Layer 1" xmlns="http://www.w3.org/2000/svg" viewBox="0 0 29.78 66.19"><title>S</title><path d="M81.75,102.54c-.69,4-1.37,8.08-2.07,12.11-.9,5.18.72,7.17,6,7.4a83.94,83.94,0,0,0,11.93-.76c3-.3,4.5-2.22,4-5.18-1.05-6.88-2-13.8-3.55-20.58-1.35-5.9-5.39-10.3-9.88-14.17-4.29-3.7-6.64-8-5.12-13.83,1.22-4.61,4.92-6.38,9-7.4a14,14,0,0,1,6.28,0c1.23.28,2.18,1.81,3.25,2.78-1.25.33-2.59,1.12-3.73.89-3.31-.66-9.39,1.08-10.79,3.44S86.7,73.68,89.67,77a68.9,68.9,0,0,0,5.73,6.31c6.73,5.92,7.23,14.22,8.66,22.11.72,4,.79,8.19,1.11,12.29.31,3.87-1.72,6.39-5.23,7.14-6.76,1.45-13.57,1.76-20.06-1.4a7.71,7.71,0,0,1-1.94-1.11C73.42,118.11,75.17,105.32,81.75,102.54Z" transform="translate(-75.42 -59.75)"/></svg>