<svg id="Layer_1" data-name="Layer 1" xmlns="http://www.w3.org/2000/svg" viewBox="0 0 70.09 64.99"><title>T</title><path d="M173.68,30.39c-2.42.7-4.8,1.78-7.26,2-13,1.31-26,2.38-39,3.59-4.82.45-9.67.87-14.43,1.72-1.64.29-3,1.93-4.58,2.78-1,.51-2.52,1.27-3,.89a4.78,4.78,0,0,1-1.81-3.34,3.58,3.58,0,0,1,2.08-2.61,44.83,44.83,0,0,1,9.4-2.37c14.35-1.51,28.72-2.78,43.09-4.13,3.84-.36,7.68-.84,11.53-1,1.29-.06,2.62.66,3.94,1Z" transform="translate(-103.59 -27.93)"/><path d="M128.42,41.8c.61,1,1.71,2,1.76,3a67.05,67.05,0,0,1-3.12,24.64c-2.14,6.54-3.27,13.41-4.72,20.16-.37,1.75-.15,3.69-2.84,3.31s-1.79-2.28-1.42-3.73c2.63-10.42,5.42-20.8,8-31.25a33.2,33.2,0,0,0,.46-7c.07-2.85,0-5.69,0-8.54Z" transform="translate(-103.59 -27.93)"/></svg>