<svg id="Layer_1" data-name="Layer 1" xmlns="http://www.w3.org/2000/svg" viewBox="0 0 46.1 55.59"><title>U</title><path d="M93.27,82.63c1.58.81,3.42,1.17,3.84,2.13s-.45,2.62-.9,3.92c-1.07,3.14-2.6,6.18-3.28,9.41-1.47,7-2.61,14.13-3.69,21.24-.21,1.38,0,3.46.84,4.22,1.2,1.06,3.84,2.15,4.81,1.54,5.31-3.37,10.26-7.31,15.45-10.9a14.21,14.21,0,0,1,3.71-1.46,27.57,27.57,0,0,1,1.26-4c2.42-4.79,5-9.48,7.4-14.27,1.63-3.28,2.88-6.74,4.55-10,.55-1.07,1.87-1.75,2.85-2.6.56,1.23,1.2,2.44,1.67,3.71a2,2,0,0,1-.25,1.44c-2.82,5.22-5.86,10.33-8.47,15.65a61.21,61.21,0,0,0-4.64,11.95c-1.77,7.17-2.93,14.49-4.36,21.75a5.07,5.07,0,0,1-.67,1.09c-2.39-1.15-2.62-3.09-2.16-5.22,1-4.62,2.16-9.21,3-13.85.2-1.08-.5-2.32-.79-3.49a15.07,15.07,0,0,0-2.43,1.7c-4.09,4.28-7.83,8.85-13.66,11.13-6.88,2.69-12.36-.35-11.58-7.66,1.06-9.92,1.63-20,6.26-29.31C93.09,88.7,92.81,86,93.27,82.63Z" transform="translate(-85.73 -81.88)"/></svg>