<svg id="Layer_1" data-name="Layer 1" xmlns="http://www.w3.org/2000/svg" viewBox="0 0 33.36 45.41"><title>V</title><path d="M109.43,112.94c2.58-2.78,4.37-4.86,6.32-6.77,2.8-2.74,6.44-4.83,6.2-9.59a7.1,7.1,0,0,1,1.15-3.09q4-7.93,8.12-15.81c.65-1.24,1.5-2.36,2.28-3.57,3.43,1.88,1.68,4.1.88,5.71-2.84,5.71-6.06,11.23-9,16.9-3.34,6.47-7.74,12.22-12.15,17.93-1.53,2-4,3.31-6.17,4.67a3.14,3.14,0,0,1-2.72-.3c-.41-.26-.53-1.65-.24-2.29,3-6.79,1.36-13.72.55-20.55-.62-5.21-2-10.32-2.48-16.16.92.85,2.22,1.53,2.69,2.59a43.7,43.7,0,0,1,4,19c-.07,2.73-.44,5.46-.42,8.18A10.72,10.72,0,0,0,109.43,112.94Z" transform="translate(-102.19 -74.11)"/></svg>