<svg id="Layer_1" data-name="Layer 1" xmlns="http://www.w3.org/2000/svg" viewBox="0 0 65.8 47.91"><title>W</title><path d="M118.63,87.49c-.35.66-.47,1.21-.81,1.47-3.59,2.64-4,7-5.58,10.64-.46,1.06-.41,3.39.06,3.59a8.51,8.51,0,0,0,4.52.31c1.53-.28,3-1.14,5.18-2-1.68,3.8-6.24,6.31-9.18,5.89-5.24-.76-4.47-4.58-3.54-8.74-3.87,1.86-7,3.39-10.14,4.86a13.29,13.29,0,0,1-2.81,1c-6,1.26-8.91-.81-7.79-6.67,1.21-6.38,3.76-12.5,5.65-18.76,1.68-5.56,6.39-9.92,6.28-16.23,0-.93,1.19-2,2.06-2.75.31-.27,1.32.27,2,.44a30.06,30.06,0,0,1-.89,3.29c-2.35,6-4.77,12-7.13,18-1.77,4.49-3.66,9-5.12,13.55-.52,1.62,0,3.6.12,5.41,1.85-.2,3.72-.32,5.56-.62,1.21-.2,2.39-1,3.58-1,6,0,8.72-4.35,11.78-8.4C113.87,88.81,114.74,85.46,118.63,87.49Z" transform="translate(-88.3 -59.48)"/><path d="M149.6,71,137,93.7c-2.94-1.44-4.7-.27-6.39,2.6a9.66,9.66,0,0,1-7.08,4.73l-.66-.9c3.36-2.93,7.12-5.52,10-8.88,3.64-4.29,6.61-9.15,9.72-13.87,1.46-2.23,2.46-4.76,3.93-7,.34-.51,1.75-.31,2.66-.43Z" transform="translate(-88.3 -59.48)"/><path d="M147.18,67.68c1-1.94,2.13-3.85,3.13-5.81.76-1.49,1.49-3.32,3.45-1.85.56.42.36,2.5-.11,3.54a16.65,16.65,0,0,1-3.09,4.49c-.58.6-1.84.55-2.79.8Z" transform="translate(-88.3 -59.48)"/></svg>