<svg id="Layer_1" data-name="Layer 1" xmlns="http://www.w3.org/2000/svg" viewBox="0 0 32.91 52.31"><title>X</title><path d="M86.69,77.1l8.4,12.44C99.18,84.88,100,77.4,108,78.46c-2.68,3.4-4.92,7.34-8.18,10.06-3.75,3.14-3.95,6.26-2.59,10.39,2.28,6.94,4.21,14,6.5,21,.75,2.27,2.26,4.28,3.25,6.49.34.77.48,2.39.14,2.58a3.68,3.68,0,0,1-3,.28,4.79,4.79,0,0,1-2-2.61c-2.57-7.75-5-15.56-7.54-23.3a21.41,21.41,0,0,0-2.23-3.9c-1,1-2,2-2.88,3.09-2.11,2.57-4.23,5.14-6.22,7.81-1.78,2.39-3.28,5-5.15,7.31-.53.66-1.94.61-3,.88,0-1-.32-2.24.16-2.86,4.61-6,9.28-11.95,14.12-17.75,2.2-2.64,2.38-4.87.33-7.68a45.38,45.38,0,0,1-4.38-7.82c-.6-1.31-.47-2.94-.68-4.42Z" transform="translate(-75.13 -77.1)"/></svg>