<svg id="Layer_1" data-name="Layer 1" xmlns="http://www.w3.org/2000/svg" viewBox="0 0 42.71 69.52"><title>Y</title><path d="M84.75,59.29c2.25-.57,3.54-1,4.49,2,2.19,6.89,1.66,13.79,1.5,20.76,0,1.15.74,2.31,1.15,3.47.84-.71,1.73-1.37,2.52-2.13,1.61-1.55,3-3.48,4.79-4.65,2.41-1.53,4.68-2.87,4.68-6.15a1.73,1.73,0,0,1,.68-1.21c6-4,8.43-10.65,12.13-16.33,1.25-1.91,2.19-3.39,5-.93-4.93,7.3-9.87,14.53-14.72,21.82-2.81,4.23-5.45,8.57-8.22,12.83a15.08,15.08,0,0,1-1.88,2l-1-2.88a7.54,7.54,0,0,0-5,5.48c-2.32,8.9-5,17.69-7.76,26.47-.33,1.08-1.91,2.66-2.68,2.55-2.57-.39-1-2.18-.63-3.45,2.33-7.36,5.1-14.61,6.88-22.09,1-4,.37-8.5.28-12.76q-.24-10-.79-20.1C86.08,62.52,85.33,61.14,84.75,59.29Z" transform="translate(-78.96 -52.82)"/></svg>