<svg id="Layer_1" data-name="Layer 1" xmlns="http://www.w3.org/2000/svg" viewBox="0 0 53.27 45.38"><title>Z</title><path d="M108.36,125.55c.75,4.42.1,5.91-4.68,7.08-10.37,2.55-20.82,4.75-31.29,6.88a127.87,127.87,0,0,1-13.28,1.72c-1.06.1-2.21-.61-3.76-1.09C69.63,126.7,85,115.67,96.65,99.91c-9.18-2.8-16,4-24.08,4.42,2.61-2.93,5.07-5.7,9.09-6.3,4.41-.67,8.79-1.75,13.22-2.16,1.6-.14,4.21.71,4.77,1.87s-.22,3.78-1.29,5c-4.59,5.34-9.28,10.63-14.35,15.5s-10.76,9.45-16.24,14.07a33.88,33.88,0,0,1-4,2.56C68.58,139.15,98,133,108.36,125.55Z" transform="translate(-55.35 -95.86)"/></svg>