<svg id="Layer_1" data-name="Layer 1" xmlns="http://www.w3.org/2000/svg" viewBox="0 0 45.83 35.76"><defs><style>.cls-1{fill:#0d0a09;}.cls-2{fill:#0a0a09;}.cls-3{fill:#28201f;}.cls-4{fill:#34312e;}.cls-5{fill:#554643;}.cls-6{fill:#111010;}.cls-7{fill:#160f0f;}.cls-8{fill:#3d3434;}.cls-9{fill:#1b1715;}.cls-10{fill:#040100;}.cls-11{fill:#191513;}.cls-12{fill:#211a19;}.cls-13{fill:#251d1c;}.cls-14{fill:#120e0d;}.cls-15{fill:#160403;}.cls-16{fill:#e7e4e2;}</style></defs><title>a</title><path class="cls-1" d="M124.63,96.72A32.12,32.12,0,0,0,120,105a1.94,1.94,0,0,0,.3,2.44,1.16,1.16,0,0,1,.5.3c1.35,1.76,3.19,1.75,5.08,1.37a53.81,53.81,0,0,0,5.45-1.27,14.26,14.26,0,0,1,1.61-.29,2.15,2.15,0,0,0,1.83-1.27.76.76,0,0,1,.28-.22c.73-.2,1.5-.16,2.24-.36a3.07,3.07,0,0,0,2.38-2.26c.11-.43.24-.85.78-.94,1.75.77,2.21,2.07,1.2,3.63a8.48,8.48,0,0,1-3.91,3.06c-1.84.8-3.8,1.24-5.69,1.87a7,7,0,0,0-3.08.8,5,5,0,0,1-2.24.71c-.52,0-.61.4-.82.72a2.37,2.37,0,0,1-2.37.4,30.19,30.19,0,0,1-6.16-2.21c-.84-1.1-1.79-2.16-1.56-3.71a.67.67,0,0,1,.24-.29,2.42,2.42,0,0,0,1.35-2c.28-1.6.52-3.21.81-4.81a5.14,5.14,0,0,0-.36-2.55c0-1.15,0-2.3-1.25-2.92-.25-.63-.79-.65-1.36-.68-.89-.06-1.81.21-2.66-.26-.31-.69.09-1.17.48-1.65,3.11-1.32,6.27-2.29,9.71-1.54a3.9,3.9,0,0,1,2.54,5C125.16,96.46,124.76,96.42,124.63,96.72Z" transform="translate(-97.45 -79.5)"/><path class="cls-2" d="M122.16,79.94c0,.5,0,.91.62,1.1s.91.51,1.4.68a1.51,1.51,0,0,1,1.15,1.45c.41,1.16.78,2.34,1.27,3.48a4.24,4.24,0,0,1-.31,3.14c-.2.56-.59.43-1,.16a3.26,3.26,0,0,1-1.08-1.69,4.61,4.61,0,0,0-2.35-2.88,3.64,3.64,0,0,0-3.28-1,29.47,29.47,0,0,0-8.79,2.88,3.94,3.94,0,0,1-2.52.49,2.16,2.16,0,0,1-1-.93c-.78-1.21-.45-2.19.94-2.55a4.59,4.59,0,0,0,2.19-1.12,20.37,20.37,0,0,1,11.36-3.67C121.25,79.52,121.82,79.37,122.16,79.94Z" transform="translate(-97.45 -79.5)"/><path class="cls-3" d="M121.91,85.38a2.56,2.56,0,0,1,2.29,1.93c.36,1,.6,2.08,1.7,2.72.49-1.52,1.06-3-.08-4.45a3.29,3.29,0,0,1-.49-2.41,1.79,1.79,0,0,1,1.1,1.2c.84,3.46,1.89,6.94.29,10.47-.41.9-.76,2-2.09,1.88,1.49-2.38,0-5-2.77-5.42-3.16-.48-5.89.8-8.78,1.51a2.9,2.9,0,0,1-1.91.34c-.43-.05-.9,0-1.23-.36a27.83,27.83,0,0,1,7.47-2.27,40.22,40.22,0,0,1,5.37-.14c1.1,0,1.17-.39,1-1.27C123.4,87.73,122.3,86.73,121.91,85.38Z" transform="translate(-97.45 -79.5)"/><path class="cls-4" d="M97.92,106.25c-.82-.67-.45-1.1.28-1.49s1.26-.09,2-.23c-1.56-2.52-.41-4.67.84-6.82a1.5,1.5,0,0,1,.67-.65L107,94.39a1,1,0,0,1,.25,1.12c-.21.55-.72.69-1.21.86s-1.26.47-1.89.73c-1.7.71-2,2.23-2.24,3.79-.22.34-.67.42-.93.72a.93.93,0,0,0-.08,1.11c.14.26.33.48.65.44s.53-.43.61-.78a3.73,3.73,0,0,1,.36-1.13,2.6,2.6,0,0,1,2.1-1.31,3.15,3.15,0,0,1,1.26,0c.67,2-2,5.74-4,5.72-.31,0-.63-.12-.84.23s-.6.61-1,.43C99.32,106.06,98.62,106.32,97.92,106.25Z" transform="translate(-97.45 -79.5)"/><path class="cls-5" d="M117.41,111.26a4.78,4.78,0,0,0-2.48,1.3,10.5,10.5,0,0,1-8.81,2.57l-.49-.48c.4-.62,1.11-.49,1.68-.7a16.16,16.16,0,0,1,2.59-.37,1.69,1.69,0,0,0,.91-.26c.31-.2.62-.43.58-.84s-.44-.52-.8-.6-1,0-1.38-.3a1.19,1.19,0,0,1,0-1.1,2.38,2.38,0,0,1,1.21-1.11c1.37-.66,2.82-1.12,4.18-1.8a1.06,1.06,0,0,1,1.33.12C115.87,109.11,116.81,110.12,117.41,111.26Z" transform="translate(-97.45 -79.5)"/><path class="cls-6" d="M107.34,114.17c-.51.4-1.17.21-1.71.48a2.58,2.58,0,0,1-1.61-.32c-3.2-1.8-5.79-4.08-6.1-8.08a1.57,1.57,0,0,1,1.87-.25c.42.21.85.32,1.07-.29.93.07,1.29,1,1.94,1.43a7.9,7.9,0,0,1,2.46,2.18c-.31.7.42,1.38,0,2.09-.49.19-.93-.07-1.39-.17a2.25,2.25,0,0,0-1.18,0c-.27.09-.55.21-.59.52s.29.45.54.54c1.16.41,2.35.77,3.51,1.18C106.63,113.58,107.14,113.64,107.34,114.17Z" transform="translate(-97.45 -79.5)"/><path class="cls-7" d="M109.48,83.49a3,3,0,0,1-2.09,1.1c-1.41.34-1.63.94-.82,2.15.24.36.5.7.75,1.05-2,1.26-4.08,2.35-6.54,2-.9-.14-.61-1.16-.39-1.57.46-.84.49-1.8.93-2.63,2.31-.69,4.43-1.94,6.85-2.32C108.63,83.18,109.12,83,109.48,83.49Z" transform="translate(-97.45 -79.5)"/><path class="cls-8" d="M143.08,107.43c-1,.5-2,.94-3,1.52-2.27,1.43-4.92,1.91-7.29,3.09a2.9,2.9,0,0,1-1.75.15c0-.72.44-1.06,1-1.39l5.4-1.85a8.39,8.39,0,0,0,3.26-2.14c1.35-1.37,1.93-2.76-.26-4.18a.64.64,0,0,1-.42-.56c.46-1.21,1-1.38,1.94-.58.41.34.91.62,1.11,1.17C143,104.25,143.56,105.84,143.08,107.43Z" transform="translate(-97.45 -79.5)"/><path class="cls-9" d="M107.07,95.67l0-1.28a5.37,5.37,0,0,1,2.9-1.6l1.23,0a8.68,8.68,0,0,1-2.92,2.92A.87.87,0,0,1,107.07,95.67Z" transform="translate(-97.45 -79.5)"/><path class="cls-10" d="M107.07,95.67A2.17,2.17,0,0,0,109,94.9c.72-.72,1.47-1.4,2.22-2.09h1.91l-.48,1.43a6.15,6.15,0,0,1-3.51,2.54c-1.81.43-3.34,1.14-4,3.06-.07.19-.27.28-.45.38a2.36,2.36,0,0,0-1.92,1.21c-.55.3-.78,0-1-.47,0-2.68.74-3.66,3.27-4.57Z" transform="translate(-97.45 -79.5)"/><path class="cls-11" d="M104.67,100.22a4.78,4.78,0,0,1,4.17-3.66A4.91,4.91,0,0,0,111.56,95c.28-.29.56-.68,1-.73,1.14,0,2.28,0,3.43,0,.61,0,1,.17.66.92-.3.1-.63.34-.89.28-1.59-.37-2.66.42-3.79,1.4-1.3,1.13-3,1.53-4.55,2.31-.53.26-1,.56-1.57.84A1.93,1.93,0,0,1,104.67,100.22Z" transform="translate(-97.45 -79.5)"/><path class="cls-5" d="M116,107.69c.55-2.74,1.11-5.47,1.63-8.2a5.56,5.56,0,0,1,.48-1.46c1.11,2,.1,3.94-.06,5.9,0,.67-.25,1.32-.34,2A1.79,1.79,0,0,1,116,107.69Z" transform="translate(-97.45 -79.5)"/><path class="cls-12" d="M134.88,106.2c.6-.28,1.19-.57,1.8-.83.37-.16.84-.3,1-.66.41-1.32,1.68-1.73,2.56-2.54l.24.46a.81.81,0,0,0-.45.51c-.65,2.24-1.62,3-3.93,3.09C135.66,106.25,135.27,106.21,134.88,106.2Z" transform="translate(-97.45 -79.5)"/><path class="cls-12" d="M132,110.8l-1,1.39-5.28,1c0-.37-.1-1,.48-.89,1.3.16,2.26-.63,3.34-1.06A5.63,5.63,0,0,1,132,110.8Z" transform="translate(-97.45 -79.5)"/><path class="cls-13" d="M131.49,108.13c0-.38-.48-.71-.09-1.12a3.16,3.16,0,0,0,1.78-.59,2,2,0,0,1,1.71-.23,1.31,1.31,0,0,1-1.2,1.49C133,107.85,132.23,108,131.49,108.13Z" transform="translate(-97.45 -79.5)"/><path class="cls-14" d="M101.79,101c.34.12.54.52,1,.47-.09.38-.15.77-.26,1.14s-.27.94-.85,1a.84.84,0,0,1-.94-.57c-.16-.45-.56-.92-.11-1.43A1.33,1.33,0,0,1,101.79,101Z" transform="translate(-97.45 -79.5)"/><path class="cls-15" d="M107.34,114.17c-1.57-.54-3.14-1.07-4.71-1.63-.41-.15-1.11-.12-1-.77a1.31,1.31,0,0,1,1.32-1c.87-.07,1.58.49,2.42.49a.47.47,0,0,1,.53.11,2.26,2.26,0,0,0,2.52.22.88.88,0,0,1,.79-.11,12.86,12.86,0,0,1,1.87.15c.87.2,1,.81.48,1.51a1.84,1.84,0,0,1-1.3.73C109.29,114,108.32,114.08,107.34,114.17Z" transform="translate(-97.45 -79.5)"/><path class="cls-16" d="M109.22,111.5c-1.75,1-2.48,1-3.84-.22-.33-.6-.86-1.18-.24-1.91,1.44.34,3,.2,4.28,1.17C109.53,110.9,109.29,111.18,109.22,111.5Z" transform="translate(-97.45 -79.5)"/></svg>