<svg id="Layer_1" data-name="Layer 1" xmlns="http://www.w3.org/2000/svg" viewBox="0 0 39.07 64.29"><defs><style>.cls-1{fill:#0c0807;}.cls-2{fill:#292624;}.cls-3{fill:#45403e;}.cls-4{fill:#5c5451;}.cls-5{fill:#383330;}.cls-6{fill:#f7f1ef;}.cls-7{fill:#18110c;}.cls-8{fill:#f1eeeb;}</style></defs><title>b</title><path class="cls-1" d="M107.9,77.05c-.52-4.26,2.37-8.11,1.47-12.41A2.34,2.34,0,0,1,110,62c.82-.91,1.24-2.74,3.07-1.76,1.41.75,1.63,2,1.13,3.49-.59,1.75-.47,3.63-.88,5.42-.6,4.41-.6,9-2.88,13a2.18,2.18,0,0,0,.09,2.76,2.6,2.6,0,0,0,2.77.48c5.38-1.33,8.11.7,8,6.13,0,2.55.39,5.24-1.2,7.58-1,2.34-2,4.63-3.11,6.93a2.07,2.07,0,0,1-2.58-.84,2.88,2.88,0,0,1-.2-2.23c1.3-3.68,3.81-7.05,2.85-11.3a5,5,0,0,0-1.61-1.78c-3.4-1.35-5.32.85-7.27,3-2.48,2.74-3.68,6.5-6.93,8.61a15.53,15.53,0,0,0-3.2,5.59,4.9,4.9,0,0,1-.53.91,40.94,40.94,0,0,0-3.71,5c-.5.68-1.21,1.39-2.14,1.05s-.91-1.34-.86-2.21c.87-3.57,3.31-6.5,4.73-10.5-3.18.69-4.06,3.64-6.48,4.21a3.85,3.85,0,0,1-1.12.12c-2.35-.68-2.79-2.09-1.16-3.81,2.5-2.64,5.06-5.08,9.34-3.92,2.85.77,4.53-1.88,5.29-3.69C103.81,88.59,107.78,83.51,107.9,77.05Z" transform="translate(-82.29 -57.41)"/><path class="cls-2" d="M107.9,77.05c.27,4.89-4.65,16.86-8,20A4.63,4.63,0,0,1,95,98.44c-3.57-.78-6.1,1.7-8.12,4.25-1.29,1.63.46,2,1.65,2.34-.42,2.15-2,4.11-1.06,6.48.88,3,2,5.75,5.73,6,.87,0,1.73,0,2.59,0a6.8,6.8,0,0,0,5.67-1.77,7.86,7.86,0,0,1,2.66-1.7c2,.12,3.11-2.27,5.2-2a2.94,2.94,0,0,1,1.8,1.15c-.11,2.08-2.35,2.15-3.27,3.47-4.08,3.45-9.3,3.59-14.13,4.84-5.82,1.14-8.26-2.86-10.26-7.07-1.58-3.32-1.85-6.67.76-10,1.67-2.13,3.1-4.36,5.34-6A6.68,6.68,0,0,1,94.81,97c4,.82,6-1.47,7-4.58C103.59,87.15,107.13,82.65,107.9,77.05Z" transform="translate(-82.29 -57.41)"/><path class="cls-3" d="M107.89,116.22l3-3c1.2-3.11,2.51-6.12,5.92-7.49a14.77,14.77,0,0,1,3.3-6.64c-1.84,7.47-5.08,14-12.14,17.93-.23-.14-.32-.31-.28-.49S107.82,116.22,107.89,116.22Z" transform="translate(-82.29 -57.41)"/><path class="cls-4" d="M113.36,69.12a8.49,8.49,0,0,1,.23-5.09c.49-1.34.61-2.54-.72-3.2-1.69-.83-1.3,1.31-2.14,1.75a2.91,2.91,0,0,0-1.36,2.06c-.72-2.76,1.6-7,4.22-7.21,1.88-.19,2.08,1.47,2,2.82A26.31,26.31,0,0,1,113.36,69.12Z" transform="translate(-82.29 -57.41)"/><path class="cls-5" d="M107.89,116.22l.11.78c-4,3.87-9.11,4.24-14.25,4.51C98.48,119.78,103.58,119.07,107.89,116.22Z" transform="translate(-82.29 -57.41)"/><path class="cls-6" d="M89.22,105c3.66.89,3.85,2,.9,5.33-1,.59-1.41,2.63-3.23,1.42-.74-2.55-1.07-5,1.67-6.69A.77.77,0,0,0,89.22,105Z" transform="translate(-82.29 -57.41)"/><path class="cls-3" d="M104.11,114.67c.74-.81,2.5-.41,2.51-2.09l1.34-.91c2-3,5.1-5.33,6.13-9a.76.76,0,0,1,.87.28l-.14,2.08a9.44,9.44,0,0,1-5.35,7.48C107.44,112.63,106.66,115.8,104.11,114.67Z" transform="translate(-82.29 -57.41)"/><path class="cls-2" d="M90.12,111.83l1.25-.27c.13.59.07,1.52.42,1.71.83.46,1.27-.47,1.6-1,1.13-1.89,1.93-4,4.17-5-1.23,2-2.46,4.08-3.71,6.11-.91,1.47-2.35,1.5-3.84,1.32C88,113.67,88.5,112.73,90.12,111.83Z" transform="translate(-82.29 -57.41)"/><path class="cls-7" d="M109.47,112.48c1.69-2.56,4.34-4.43,5.35-7.48l2,.72c-2.69,1.93-3.46,5.37-5.92,7.48A1.36,1.36,0,0,1,109.47,112.48Z" transform="translate(-82.29 -57.41)"/><path class="cls-3" d="M115.55,99.77c.9-2.93,2.33-5.75,2.06-9,1.61.91,1.16,2.45.76,3.62-1,2.87-1.3,6-3.41,8.48l-.39-.31C113.94,101.34,115,100.65,115.55,99.77Z" transform="translate(-82.29 -57.41)"/><path class="cls-2" d="M100.55,101.25c-.17,2.43-2,4-3,6C97.36,104.7,98.92,103,100.55,101.25Z" transform="translate(-82.29 -57.41)"/><path class="cls-8" d="M90.12,111.83c-.36,1-1.55,1.86-.11,2.88.39,1.72,4.13.78,3,3.73a6.56,6.56,0,0,1-6.1-6.72c1.38.22,1.84-1.67,3.23-1.42Z" transform="translate(-82.29 -57.41)"/><path class="cls-5" d="M95.72,118.38l6.28-2.16C100.51,118.7,98.13,118.58,95.72,118.38Z" transform="translate(-82.29 -57.41)"/></svg>