<svg id="Layer_1" data-name="Layer 1" xmlns="http://www.w3.org/2000/svg" viewBox="0 0 39.63 31.34"><defs><style>.cls-1{fill:#110b0c;}.cls-2{fill:#201a1c;}.cls-3{fill:#6a6260;}.cls-4{fill:#c9c3be;}.cls-5{fill:#e9e5e0;}.cls-6{fill:#c3bbb6;}.cls-7{fill:#554c48;}</style></defs><title>c</title><path class="cls-1" d="M90.75,106.5a139.61,139.61,0,0,1-14.17-.39c-2.46-.21-4.28-1-5.4-3.27-1.49-2.51-2.1-5-.32-7.72a5.63,5.63,0,0,0,.47-2.55A3.78,3.78,0,0,1,73,90.2c.83-.92,1.63-2.13,3-1.75s1.26,1.63,1,2.77c-1,2.84-2.63,5.47-2.85,8.58.54,2.38,2.45,2.56,4.34,2.57a34.81,34.81,0,0,1,9.86,1c4.11-.6,8.43,0,12.16-2.63a2.36,2.36,0,0,1,3.54,1c.79,1.86-1,2-2.15,2.74C98.46,106.7,94.45,105.65,90.75,106.5Z" transform="translate(-68.75 -75.47)"/><path class="cls-2" d="M86.91,76.45c3-1,6.14-2.18,8.29,1.58.82,2.86-1.58,2.92-3.14,3.23a18.07,18.07,0,0,0-4.22,1.09c-1.26.27-2.47.37-3.35-.86C83.88,79.13,85.34,77.76,86.91,76.45Z" transform="translate(-68.75 -75.47)"/><path class="cls-3" d="M90.75,106.5c3.6-1.2,7.66-.4,11-2.58.77-.5,2.3-.54,1.84-1.84s-1.91-.93-2.9-.46a22,22,0,0,1-12.31,1.8c3.13-1.44,6.8-.34,9.86-2.12,1.88-1.54,4.71-1.41,6.21-3.77a1.64,1.64,0,0,1,2.82.16c.62,1.55.92,3.51-.48,4.86a11.37,11.37,0,0,1-4.07,2.45A21.46,21.46,0,0,1,90.75,106.5Z" transform="translate(-68.75 -75.47)"/><path class="cls-4" d="M86.91,76.45,84.6,80.83C79.84,83,77,87.28,73.36,90.65a2.46,2.46,0,0,0-1.42,1.54c-.37,2.9-2,5.45-2.33,8.37-2.18-3.7.32-6.92,1.78-9.65C74.84,84.46,80.44,79.89,86.91,76.45Z" transform="translate(-68.75 -75.47)"/><path class="cls-5" d="M102.75,105c1.64-1.67,4.59-2.2,4.63-5.27,0-.73.11-1.57-.58-2a1.62,1.62,0,0,0-2,.44c-1.77,1.93-4.16,2.45-6.5,3.15a45.1,45.1,0,0,0,6.23-5.41c.73-.77,1.84-2,3.23-1s.31,2.07.29,3.08C107.93,103.34,107.26,104.16,102.75,105Z" transform="translate(-68.75 -75.47)"/><path class="cls-6" d="M87.91,81.9c1.82-1.58,4.68.18,6.42-2.1A3.22,3.22,0,0,0,95.2,78c1.82,1.85.63,3.18-1.11,3.4-7.17.88-12.41,4.69-16.63,10.25a.8.8,0,0,1-.56-.8C78.34,85.15,82.63,82.92,87.91,81.9Z" transform="translate(-68.75 -75.47)"/><path class="cls-6" d="M74.21,99.8c-1.25-3.33,1.54-5.59,2.22-8.4a.41.41,0,0,1,.59-.11l.44.39C76.37,94.39,75.29,97.09,74.21,99.8Z" transform="translate(-68.75 -75.47)"/><path class="cls-7" d="M69.61,100.56c-.43-3.13,1.41-5.62,2.33-8.37-.06,1.1.3,2.51-.25,3.24-1.83,2.46-1.09,4.9-.51,7.41A4.49,4.49,0,0,1,69.61,100.56Z" transform="translate(-68.75 -75.47)"/><path class="cls-7" d="M77,91.29a.87.87,0,0,1-.59.11c-.25-.77.58-1.94-.41-2.31-1.27-.47-1.56,1.37-2.66,1.56,1.55-4.47,7.67-9.82,11.24-9.82.8,1.29,2.17.83,3.31,1.07C83.52,84.15,78.83,86.05,77,91.29Z" transform="translate(-68.75 -75.47)"/></svg>