<svg id="Layer_1" data-name="Layer 1" xmlns="http://www.w3.org/2000/svg" viewBox="0 0 42.08 42.61"><defs><style>.cls-1{fill:#fff;}</style></defs><title>e</title><path class="cls-1" d="M90.63,127.6a32.72,32.72,0,0,0,16.46-4.74,18,18,0,0,0,7.35-7,3.29,3.29,0,0,0,.34-1.58c0-.27-.39-.63-.68-.75a.9.9,0,0,0-.77.33c-1.15,2-3.1,2.84-5,3.83-7.72,4.09-15.79,6.41-24.64,5.09-2.43-.36-4.6-.94-5.8-3.37a8.29,8.29,0,0,1-.71-5.59c1.06-4.82,4.16-7.57,9.09-8.16,1.63-.19,2.2-.83,2.33-2.48A46.9,46.9,0,0,0,89.07,98c-.16-3.5,2.87-4.7,4.66-6.79.06-.07.22-.08.34-.08a10.76,10.76,0,0,0,5.24-1.86,1.78,1.78,0,0,1,1.1-.14c1.09.16,2.17.46,3.26.59,1.27.14,2.56,1.47,2.19,2.61a5.3,5.3,0,0,1-3.16,3.77,41.84,41.84,0,0,0-6.16,3.11c-1.24.72-2.39,1.36-3.91,1a1.81,1.81,0,0,0-1.36.69c-.17.19,0,.84.2,1.16a2.57,2.57,0,0,0,3.25,1c1.44-.59,2.86-1.2,4.3-1.74a11.1,11.1,0,0,0,5.45-4.14,1.65,1.65,0,0,1,1.24-.68,2.7,2.7,0,0,0,2.78-1.67c.68-1.22,1.29-2.48,1.91-3.73s.45-2.24-.94-2.82c-2.84-1.16-5.73-2.2-8.62-3.25a1.85,1.85,0,0,0-1.25.06c-3,1.41-6,2.89-9.09,4.3a5.43,5.43,0,0,0-2.9,2.87,3.11,3.11,0,0,1-1,1.14,23.83,23.83,0,0,0-6.94,8.6,27.08,27.08,0,0,1-2.33,3.41,14.51,14.51,0,0,0-1.7,2.55,56.15,56.15,0,0,0-2.49,7,10.18,10.18,0,0,0-.24,4.89,8.27,8.27,0,0,0,6.12,6A40,40,0,0,0,90.63,127.6Z" transform="translate(-72.69 -84.99)"/><path d="M90.63,127.6A40,40,0,0,1,79,125.89a8.27,8.27,0,0,1-6.12-6,10.18,10.18,0,0,1,.24-4.89,56.15,56.15,0,0,1,2.49-7,14.51,14.51,0,0,1,1.7-2.55A27.08,27.08,0,0,0,79.66,102a23.83,23.83,0,0,1,6.94-8.6,3.11,3.11,0,0,0,1-1.14,5.43,5.43,0,0,1,2.9-2.87c3-1.41,6-2.89,9.09-4.3a1.85,1.85,0,0,1,1.25-.06c2.89,1.05,5.78,2.09,8.62,3.25,1.39.58,1.6,1.48.94,2.82s-1.23,2.51-1.91,3.73a2.7,2.7,0,0,1-2.78,1.67,1.65,1.65,0,0,0-1.24.68A11.1,11.1,0,0,1,99,101.36c-1.44.54-2.86,1.15-4.3,1.74a2.57,2.57,0,0,1-3.25-1c-.2-.32-.37-1-.2-1.16a1.81,1.81,0,0,1,1.36-.69c1.52.36,2.67-.28,3.91-1a41.84,41.84,0,0,1,6.16-3.11,5.3,5.3,0,0,0,3.16-3.77c.37-1.14-.92-2.47-2.19-2.61-1.09-.13-2.17-.43-3.26-.59a1.78,1.78,0,0,0-1.1.14,10.76,10.76,0,0,1-5.24,1.86c-.12,0-.28,0-.34.08-1.79,2.09-4.82,3.29-4.66,6.79a46.9,46.9,0,0,1-.43,5.13c-.13,1.65-.7,2.29-2.33,2.48-4.93.59-8,3.34-9.09,8.16a8.29,8.29,0,0,0,.71,5.59c1.2,2.43,3.37,3,5.8,3.37,8.85,1.32,16.92-1,24.64-5.09,1.86-1,3.81-1.88,5-3.83a.9.9,0,0,1,.77-.33c.29.12.67.48.68.75a3.29,3.29,0,0,1-.34,1.58,18,18,0,0,1-7.35,7A32.72,32.72,0,0,1,90.63,127.6Z" transform="translate(-72.69 -84.99)"/></svg>