<svg id="Layer_1" data-name="Layer 1" xmlns="http://www.w3.org/2000/svg" viewBox="0 0 72.12 130.44"><defs><style>.cls-1{fill:#fff;}</style></defs><title>f</title><path class="cls-1" d="M103.25,104.73c-1.1,4.58-1.13,4.34,2.82,3.83,2.17-.28,4.47.41,6.72.67-.6,2-1,4.08-1.82,6-1.32,3.23-3.29,6.25-4.21,9.58-2.37,8.57-5.48,16.75-10.52,24.15-.48.71.32,2.29.53,3.47,1.07-.42,2.66-.54,3.13-1.32a84.43,84.43,0,0,0,6-11.43c3.67-9.06,7.16-18.21,10.36-27.45,1.34-3.88,3.78-5.54,7.55-6.2a59.18,59.18,0,0,0,9.4-2.31,7.63,7.63,0,0,0,5.29-6.42c-4.49,1.79-8.72,3.58-13,5.11a3.87,3.87,0,0,1-3.27-.54c-.54-.46-.5-2.13-.14-3,3.29-8.18,6.46-16.42,10.19-24.41,2.46-5.28,3.27-11.52,8.33-15.45.48-.38.62-1.28.81-2,.52-1.88.67-3.94,1.53-5.64,3.37-6.64,6.62-13.38,10.63-19.63,1.55-2.42,4.81-4,7.6-5.28,2.1-1,3.94.34,4.08,2.91a12,12,0,0,1-.35,4.06A35.08,35.08,0,0,1,149,54.15a43.82,43.82,0,0,0-3.66,2.76l.84,1.31c1.69-1,3.48-1.82,5.07-2.95,8.61-6.16,15.59-13.61,16.89-24.63.3-2.54-1-5.66-2.53-7.9-1.12-1.67-7.6-.21-9.23,1.61q-3.83,4.27-7.52,8.65a25.39,25.39,0,0,0-3.74,5Q141,46.52,137.28,55.3a4.61,4.61,0,0,1-5.21,3.19c-2-.17-4.18.14-5.88-.64a7.38,7.38,0,0,1-3.53-4c-.22-.67,1.85-2.5,3.19-3.22,2.46-1.3,5.15-2.27,8.15.77-1.18-4-4.24-5.83-7.21-5.2-4.57,1-8.5,5.76-7.81,9.54.79,4.28,5,5.86,13.91,4.88a24,24,0,0,1-.83,4.94c-4.33,11-8.89,21.86-13.14,32.86-1.56,4-3.52,6.84-8.37,6.39C108.22,104.55,105.85,104.73,103.25,104.73Z" transform="translate(-96.09 -22.01)"/><path d="M103.25,104.73c2.6,0,5-.18,7.3,0,4.85.45,6.81-2.37,8.37-6.39,4.25-11,8.81-21.89,13.14-32.86a24,24,0,0,0,.83-4.94c-8.92,1-13.12-.6-13.91-4.88-.69-3.78,3.24-8.58,7.81-9.54,3-.63,6,1.21,7.21,5.2-3-3-5.69-2.07-8.15-.77-1.34.72-3.41,2.55-3.19,3.22a7.38,7.38,0,0,0,3.53,4c1.7.78,3.9.47,5.88.64a4.61,4.61,0,0,0,5.21-3.19Q141,46.53,145.14,38a25.39,25.39,0,0,1,3.74-5q3.69-4.38,7.52-8.65c1.63-1.82,8.11-3.28,9.23-1.61,1.5,2.24,2.83,5.36,2.53,7.9-1.3,11-8.28,18.47-16.89,24.63-1.59,1.13-3.38,2-5.07,2.95l-.84-1.31A43.82,43.82,0,0,1,149,54.15a35.08,35.08,0,0,0,15.9-20.7,12,12,0,0,0,.35-4.06c-.14-2.57-2-3.87-4.08-2.91-2.79,1.28-6.05,2.86-7.6,5.28-4,6.25-7.26,13-10.63,19.63-.86,1.7-1,3.76-1.53,5.64-.19.69-.33,1.59-.81,2-5.06,3.93-5.87,10.17-8.33,15.45-3.73,8-6.9,16.23-10.19,24.41-.36.89-.4,2.56.14,3a3.87,3.87,0,0,0,3.27.54c4.32-1.53,8.55-3.32,13-5.11a7.63,7.63,0,0,1-5.29,6.42,59.18,59.18,0,0,1-9.4,2.31c-3.77.66-6.21,2.32-7.55,6.2-3.2,9.24-6.69,18.39-10.36,27.45a84.43,84.43,0,0,1-6,11.43c-.47.78-2.06.9-3.13,1.32-.21-1.18-1-2.76-.53-3.47,5-7.4,8.15-15.58,10.52-24.15.92-3.33,2.89-6.35,4.21-9.58.78-1.93,1.22-4,1.82-6-2.25-.26-4.55-1-6.72-.67C102.12,109.07,102.15,109.31,103.25,104.73Z" transform="translate(-96.09 -22.01)"/></svg>