<svg id="Layer_1" data-name="Layer 1" xmlns="http://www.w3.org/2000/svg" viewBox="0 0 56.52 85.15"><defs><style>.cls-1{fill:#fff;}</style></defs><title>g</title><path class="cls-1" d="M110,80.57a10.9,10.9,0,0,0-2.81-.24c-.8.11-1.52,1.1-2.29,1.12-9,.32-13.3,7.44-18.64,13A11.21,11.21,0,0,0,83.91,99c-1.5,5.19.38,7.59,5.71,7.63,3.45,0,3.94.82,2.47,4-1.3,2.8-2.65,5.57-3.87,8.4-4.58,10.6-8.88,21.33-13.79,31.78-1.74,3.71-4.7,6.94-7.49,10-2.08,2.32-4.38,1.87-5.76-.68s-2.78-5.31-4-8a4.82,4.82,0,0,1-.22-3.21c2.81-7.6,8.79-12.44,15.06-17,3.6-2.64,7.19-5.31,10.64-8.14.79-.65,1-2,1.73-3.5-1.33.17-1.77.09-2,.27-5.72,4-11.51,7.82-17.09,12-8.21,6.08-14,13.18-10.94,24.58,1.17,4.33,3.69,6.45,7.42,7.91,3.47,1.35,5.89-.38,8.36-2.53,4.74-4.14,7.47-9.54,10-15.11,3.67-8.1,7.39-16.18,10.93-24.34,1.77-4.07,3-8.37,4.79-12.44,3-6.81,6.09-13.53,9.23-20.25C106.45,87.35,108,84.49,110,80.57Z" transform="translate(-53.51 -80.29)"/><path d="M110,80.57c-2,3.92-3.58,6.78-5,9.73-3.14,6.72-6.28,13.44-9.23,20.25-1.76,4.07-3,8.37-4.79,12.44-3.54,8.16-7.26,16.24-10.93,24.34-2.52,5.57-5.25,11-10,15.11-2.47,2.15-4.89,3.88-8.36,2.53-3.73-1.46-6.25-3.58-7.42-7.91-3.08-11.4,2.73-18.5,10.94-24.58,5.58-4.14,11.37-8,17.09-12,.27-.18.71-.1,2-.27-.72,1.52-.94,2.85-1.73,3.5-3.45,2.83-7,5.5-10.64,8.14-6.27,4.59-12.25,9.43-15.06,17a4.82,4.82,0,0,0,.22,3.21c1.19,2.73,2.55,5.41,4,8s3.68,3,5.76.68c2.79-3.1,5.75-6.33,7.49-10,4.91-10.45,9.21-21.18,13.79-31.78,1.22-2.83,2.57-5.6,3.87-8.4,1.47-3.19,1-4-2.47-4-5.33,0-7.21-2.44-5.71-7.63a11.21,11.21,0,0,1,2.38-4.56c5.34-5.54,9.62-12.66,18.64-13,.77,0,1.49-1,2.29-1.12A10.9,10.9,0,0,1,110,80.57Zm-19.32,22.9a9.29,9.29,0,0,0,7.45-5.6c1.27-3,2.77-5.79,4.07-8.72a15.94,15.94,0,0,0,.68-3c-1-.07-2.55-.62-3-.13A152,152,0,0,0,87.41,99.14C85.7,101.28,87.56,103.53,90.71,103.47Z" transform="translate(-53.51 -80.29)"/><path class="cls-1" d="M90.71,103.47c-3.15.06-5-2.19-3.3-4.33A152,152,0,0,1,99.86,86.06c.5-.49,2,.06,3,.13a15.94,15.94,0,0,1-.68,3c-1.3,2.93-2.8,5.77-4.07,8.72A9.29,9.29,0,0,1,90.71,103.47Z" transform="translate(-53.51 -80.29)"/></svg>