<svg id="Layer_1" data-name="Layer 1" xmlns="http://www.w3.org/2000/svg" viewBox="0 0 41.79 70.51"><title>h</title><path d="M105.64,96.3c1.66-.76,3.28-1.64,5-2.24,2.75-1,5.52-2.16,8.38-2.48s4.69,2.07,3.76,4.91a21.77,21.77,0,0,1-3.35,5.71c-2.24,3.1-4.79,6-7,9.14-1.65,2.38-.47,4,2.06,4.73,5.66,1.59,11.1,1.53,15.94-2.42.64-.53,1.38-.94,2.07-1.41l1,.51c-.51,1.12-.75,2.52-1.57,3.34-4.77,4.71-15.2,6-21,2.73-3.36-1.9-4.11-3.69-2.11-6.92,2.39-3.87,5.23-7.46,7.88-11.18a10.93,10.93,0,0,0,1.65-2.48c.29-.85.48-2.15,0-2.73a2.88,2.88,0,0,0-2.62-.45c-8.37,3.41-16.34,7.36-20.71,16-.46.91-1.9,1.32-2.89,2-.11-1.35-.81-3.07-.24-4,3.34-5.35,7.3-10.33,10.44-15.79q8.1-14.13,15.4-28.72c1.91-3.83,2.68-8.23,4.21-12.27.34-.91,1.66-1.44,2.53-2.15.54,1,1.42,2,1.51,3a7.39,7.39,0,0,1-.83,3.59c-4.24,8.82-8.46,17.64-12.9,26.36-1.34,2.64-3.39,4.92-5,7.43-1,1.49-1.7,3.12-2.55,4.69Z" transform="translate(-91.72 -50.12)"/></svg>