<svg id="Layer_1" data-name="Layer 1" xmlns="http://www.w3.org/2000/svg" viewBox="0 0 40.91 43.59"><defs><style>.cls-1{fill:#fff;}</style></defs><title>i</title><path d="M125.71,144.29c-1,3.36-4,4.66-10.1,3.1-3.59-.91-6.72-3.63-9.5-5.22-4.07.9-8.07,1.91-12.11,2.58-.85.14-1.9-.94-2.86-1.46a12.27,12.27,0,0,1,2.74-2.53c.77-.37,2,0,2.93.17,7.41,1.12,9.43-.53,12.31-7.36,3.25-7.7,7.17-15.19,16.28-19.38-.14,2,.11,3.55-.39,4.85-2.42,6.25-5.33,12.17-10.66,16.65-1.36,1.14-2.93,4.05-2.38,5,.87,1.55,3.32,2.59,5.28,3C119.88,144.31,122.68,144.13,125.71,144.29Zm-11.22-13.76c5-1.89,7.6-7.84,5.21-10.21Z" transform="translate(-91.14 -104.46)"/><path d="M130.8,109.89,127,106.44c.88-.7,1.84-2.07,2.63-2,2.67.3,2.47,2.41,2.42,4.26Z" transform="translate(-91.14 -104.46)"/><path class="cls-1" d="M114.49,130.53l5.21-10.21C122.09,122.69,119.52,128.64,114.49,130.53Z" transform="translate(-91.14 -104.46)"/></svg>