<svg id="Layer_1" data-name="Layer 1" xmlns="http://www.w3.org/2000/svg" viewBox="0 0 60.06 97.36"><title>j</title><path d="M75.62,130.78c.09.69.24,1.05.13,1.16-3.74,3.79-7.15,8-11.35,11.2-4.39,3.33-5.08,11.34-.45,14.61,2.93,2.08,6,4,9,5.92,4.6,2.93,7.57,2.14,9.41-3.06,3-8.43,5.7-17,8.32-25.54s5-17.46,7.63-26.14c.56-1.86,1.92-3.46,2.78-5.23a26.25,26.25,0,0,0,1.15-3.3,15.16,15.16,0,0,0-3.39-.62c-4.84.24-9.68.67-14.51.94a5.88,5.88,0,0,1-2-.71l.1-1.05c7.23-1.14,14.44-2.39,21.69-3.35,1.43-.19,3,.71,4.51,1.11-.56,1.38-1.06,2.79-1.68,4.15-2.4,5.3-5.32,10.43-7.14,15.92-2.73,8.26-4.61,16.79-7,25.16a158.31,158.31,0,0,1-5.26,16.32,38,38,0,0,1-5.81,8.94c-.79,1-2.64,1.48-4,1.56-9.22.52-20.62-9.39-20.61-18.55a15.26,15.26,0,0,1,3.76-9.77c3.76-3.84,8.71-6.52,13.19-9.64C74.35,130.59,75,130.78,75.62,130.78Z" transform="translate(-57.08 -71.43)"/><path d="M110.22,72.13c3.17-1.06,5.7-1.25,6.88,1.92.26.69-.85,2.6-1.68,2.87C111.49,78.2,111.64,74.6,110.22,72.13Z" transform="translate(-57.08 -71.43)"/></svg>