<svg id="Layer_1" data-name="Layer 1" xmlns="http://www.w3.org/2000/svg" viewBox="0 0 47.56 57.85"><title>k</title><path d="M104.86,143.48c-1.12-.77-2.1-1.11-2.38-1.74a2.46,2.46,0,0,1,.46-2.2C115.45,127,123,111.63,128.75,95.16c1-2.79,2-5.56,3.22-8.26.27-.59,1.27-.85,1.94-1.27.48.87,1.52,1.87,1.35,2.58a59.61,59.61,0,0,1-2.33,6.29c-2.48,6.75-4.91,13.53-7.44,20.27a12.77,12.77,0,0,1-1.66,2.43c-4.79,7.11-9.52,14.25-14.41,21.3A49.28,49.28,0,0,1,104.86,143.48Z" transform="translate(-102.38 -85.63)"/><path d="M149.94,110c-1.12,1.46-2,3.29-3.4,4.32-5.93,4.29-12,8.35-18.07,12.47-1.23.84-2.51,1.61-4.62,3,2.72,1.38,4.83,2.7,7.11,3.59,5.33,2.06,10.76,3.84,16.07,5.94,1.06.42,1.74,1.78,2.59,2.7-1.17.42-2.6,1.48-3.49,1.13-8.3-3.19-16.61-6.4-24.7-10.09-3.27-1.5-2.86-3.25,0-5.25,6.91-4.81,13.66-9.86,20.54-14.71,2.1-1.47,4.45-2.59,6.68-3.87Z" transform="translate(-102.38 -85.63)"/></svg>