<svg id="Layer_1" data-name="Layer 1" xmlns="http://www.w3.org/2000/svg" viewBox="0 0 50.35 57.29"><defs><style>.cls-1{fill:#fff;}</style></defs><title>l</title><path d="M82.7,141.54a20.14,20.14,0,0,1,4.22-2c8.6-1.85,15.17-5.58,18.59-14.6,4-10.43,8.35-20.79,17.25-28.46,2.6-2.24,3.91-5.93,6.12-8.7.82-1,2.53-1.35,3.84-2,.08,1.38.56,2.87.19,4.11-2.75,9.14-7.49,17.24-13.25,24.8-4.35,5.72-8.66,11.47-12.75,17.37-2.22,3.2-1.25,5.4,2.68,6,3.67.59,7.45.5,11.18.75,1.18.08,2.35.32,3.53.48l.38,1.17c-1.11.61-2.25,1.77-3.32,1.71-5-.28-9.91-.76-14.81-1.51a5.86,5.86,0,0,1-3.45-2.51c-1.52-2.33-2.68-1.89-4.39-.25-4.33,4.13-9.85,4.6-15.32,5.14Zm42.19-39.81-1.76-1.09c-4.48,4.66-8,9.89-9.84,16.2l1.34.84Z" transform="translate(-82.7 -85.81)"/><path class="cls-1" d="M124.89,101.73l-10.26,16-1.34-.84c1.79-6.31,5.36-11.54,9.84-16.2Z" transform="translate(-82.7 -85.81)"/></svg>