<svg id="Layer_1" data-name="Layer 1" xmlns="http://www.w3.org/2000/svg" viewBox="0 0 45.22 35.93"><defs><style>.cls-1{fill:#fff;}</style></defs><title>m</title><path class="cls-1" d="M126.24,94.13c3.81-2.71,7-5.24,10.5-7.37,1.71-1.05,3.88-1.38,5.84-2-.35,2.19-.35,4.53-1.13,6.56-1.54,4-3.72,7.74-5.16,11.77-.38,1.07.6,3.41,1.64,4,2.19,1.31,2.11-1,2.56-2.33q1.59-4.55,3.23-9.07c1.18-3.25,2.81-6.42,3.45-9.77.77-4-3-6.87-6.78-5.36-1.53.61-2.77,1.91-4.22,2.78-1,.61-2.28,1.56-3.17,1.33-.73-.19-1.32-1.84-1.55-2.92-.73-3.56-3.2-5.87-6.32-5.5A6.7,6.7,0,0,0,123,77.38c.51.56.92,1.38,1.56,1.63,3.11,1.24,3.72,3.52,2.65,6.34-.9,2.38-2.13,4.64-3.29,7.12a7.38,7.38,0,0,0,.93.87A12.49,12.49,0,0,0,126.24,94.13ZM102.05,96.6c2.93,2.94,3.4,3.06,5.81.12,3.39-4.13,6.47-8.51,9.83-12.66a47.27,47.27,0,0,1,4.5-4.33,3,3,0,0,0-2.27.24c-.87.24-2.21.7-2.61.31a5.24,5.24,0,0,1-1-2.89c-.08-.56.59-1.27.44-1.77a41.77,41.77,0,0,0-1.65-4.07c-.82,1.15-2,2.19-2.38,3.47-1.2,4-1.51,8.38-3.28,12.08C107.79,90.55,104.69,93.31,102.05,96.6Z" transform="translate(-102.05 -71.55)"/><path d="M126.24,94.13a12.49,12.49,0,0,1-1.35-.79,7.38,7.38,0,0,1-.93-.87c1.16-2.48,2.39-4.74,3.29-7.12,1.07-2.82.46-5.1-2.65-6.34-.64-.25-1-1.07-1.56-1.63a6.7,6.7,0,0,1,2.09-1.13c3.12-.37,5.59,1.94,6.32,5.5.23,1.08.82,2.73,1.55,2.92.89.23,2.16-.72,3.17-1.33,1.45-.87,2.69-2.17,4.22-2.78,3.79-1.51,7.55,1.32,6.78,5.36-.64,3.35-2.27,6.52-3.45,9.77q-1.64,4.53-3.23,9.07c-.45,1.31-.37,3.64-2.56,2.33-1-.62-2-3-1.64-4,1.44-4,3.62-7.78,5.16-11.77.78-2,.78-4.37,1.13-6.56-2,.65-4.13,1-5.84,2C133.27,88.89,130.05,91.42,126.24,94.13Z" transform="translate(-102.05 -71.55)"/><path d="M102.05,96.6c2.64-3.29,5.74-6,7.4-9.5,1.77-3.7,2.08-8.08,3.28-12.08.38-1.28,1.56-2.32,2.38-3.47a41.77,41.77,0,0,1,1.65,4.07c.15.5-.52,1.21-.44,1.77a5.24,5.24,0,0,0,1,2.89c.4.39,1.74-.07,2.61-.31a3,3,0,0,1,2.27-.24,47.27,47.27,0,0,0-4.5,4.33c-3.36,4.15-6.44,8.53-9.83,12.66C105.45,99.66,105,99.54,102.05,96.6Z" transform="translate(-102.05 -71.55)"/></svg>