<svg id="Layer_1" data-name="Layer 1" xmlns="http://www.w3.org/2000/svg" viewBox="0 0 31.06 33.19"><title>n</title><path d="M91,73.65c.77-4.2,3.61-5.31,6.3-5.43s5.18,1.62,4.9,4.89A132.27,132.27,0,0,1,100.25,87,96.05,96.05,0,0,1,97.1,98.5c-.36,1.09-1.6,1.89-2.44,2.83-.7-1.4-2.19-3-1.94-4.16.72-3.38,2.3-6.56,3.27-9.9a78.36,78.36,0,0,0,2.53-10.83c.52-3.78-.77-4.55-4.41-3.29A20.71,20.71,0,0,1,91,73.65Z" transform="translate(-71.12 -68.13)"/><path d="M84.65,68.13a6.45,6.45,0,0,1,4,9.72A73.48,73.48,0,0,1,73.28,95.34a9.12,9.12,0,0,1-1.76.9c-.13-.73-.56-1.56-.34-2.17A18.14,18.14,0,0,1,77,85.91c2.58-2.14,4.24-5.68,5.62-8.89C83.79,74.29,84,71.13,84.65,68.13Z" transform="translate(-71.12 -68.13)"/></svg>