<svg id="Layer_1" data-name="Layer 1" xmlns="http://www.w3.org/2000/svg" viewBox="0 0 29.35 31.8"><title>o</title><path d="M150.37,127.55c-.58,11.41-8.09,20.24-20.59,19.53-4.48-.25-6-4.54-8.09-7.55-1.81-2.58.51-4.71,1.78-7a110.73,110.73,0,0,0,4.59-10.72c1.71-4.12,7.53-7.22,11.84-6.31C146.46,116.86,150,121,150.37,127.55Zm-3.71-.68c0-3-2.75-5.91-6.1-6.51-3.16-.57-9.27,1.76-9.84,3.94-1.08,4.18-2.19,8.38-2.85,12.64-.8,5.18,2.06,7.15,7.16,6.53C140.89,142.76,146.65,132.07,146.66,126.87Z" transform="translate(-121.03 -115.32)"/></svg>