<svg id="Layer_1" data-name="Layer 1" xmlns="http://www.w3.org/2000/svg" viewBox="0 0 43.59 69.65"><title>p</title><path d="M70.58,126l-2.84-1.83c6.59-19.43,13.11-38.65,19.68-58,5.87,3.47,6.63-3.72,10-5.87,2.89-1.84,5-4.9,9.09-3.59,3.12,1,4.54,2.84,4.75,6.23C112,74.18,106.47,81.88,98,88.42,94.62,91,91.18,90.73,87.58,90.5c-3.09-.19-5,.33-5,4.06,0,1.88-1.15,3.75-1.82,5.6q-4.39,12.06-8.83,24.09A9.36,9.36,0,0,1,70.58,126Zm37.27-61.8a17.89,17.89,0,0,0-2.39-3.39c-.41-.42-2-.19-2.68.28C97.26,65,91.88,69,89.57,75.71c-.8,2.33-1.66,4.64-2.41,7-.38,1.18-.59,2.43-.87,3.64,1.61.3,3.33,1.14,4.81.83C101.36,85,107.61,76.62,107.85,64.24Z" transform="translate(-67.74 -56.39)"/></svg>