<svg id="Layer_1" data-name="Layer 1" xmlns="http://www.w3.org/2000/svg" viewBox="0 0 44.97 50.01"><title>r</title><path d="M114.15,84c-.7.94-1.25,2.44-2.13,2.67a6,6,0,0,1-4.43-.39c-5.12-3.54-5.06-9.25-4.86-14.51.14-3.62,2-7.15,2.74-10.79.2-1-.56-2.95-1.36-3.28a9.38,9.38,0,0,0-4.72-.15c-1.4.22-3.06,1.72-4,1.3-3.35-1.48-6.86-3.09-9.5-5.53s-2.59-5.89-.65-9.53c3.24-6.07,8.59-6.89,14.4-6.89a3.31,3.31,0,0,1,3.42,4c-.6,4-1.59,7.89-2.61,12.73l13,2.45c-6.33,4.89-8.08,18.41-5.8,23.58,1.11,2.51,2.47,4.33,5.75,3.33ZM86.92,46.21c-.09,5.12,5.15,9.44,9.36,8.56a2.37,2.37,0,0,0,1.6-1.26A70,70,0,0,0,100,43c.08-.92-2.31-3-3.15-2.85A29.16,29.16,0,0,0,89,43.46C87.91,44.11,87.31,45.67,86.92,46.21Z" transform="translate(-69.19 -36.93)"/><path d="M88,70.8C85.75,76.13,75.73,80.58,71.2,79a3.63,3.63,0,0,1-2-2.57,4,4,0,0,1,1.61-3c.5-.36,2,.22,2.75.8,2.52,2,5.68,1.81,9-.51A49.31,49.31,0,0,1,88,70.8Z" transform="translate(-69.19 -36.93)"/><path d="M93.58,60.56c1.39,3.64.6,5-4.32,7.68Z" transform="translate(-69.19 -36.93)"/></svg>