<svg id="Layer_1" data-name="Layer 1" xmlns="http://www.w3.org/2000/svg" viewBox="0 0 30.27 46.81"><defs><style>.cls-1{fill:#fff;}</style></defs><title>s</title><path class="cls-1" d="M115.7,63.39l-1.64.36c.59,2.89.42,6.27,1.9,8.6,5.14,8.11,3.12,16.23,1,24.44A3.6,3.6,0,0,1,115,98.9c-4.28,1.61-7.46-1-10.51-3.29-2.66-2-1.76-4.89-.94-7.53,1.35-4.36,5-6.91,7.91-10.08.92-1,1.72-2.14,2.57-3.21l-.8-.89c-.9.59-1.83,1.14-2.7,1.76-2.89,2.06-5.51,4.86-8.72,6-2.62.94-3.55,2.25-4.52,4.78h4c-4.19,5.79-3.83,10,1.3,13.3,4.29,2.73,9.18,2.89,14,1.83a4.64,4.64,0,0,0,3-2.45c2.48-8.24,5-16.52.9-25.05a9,9,0,0,1-1.06-4.67C119.83,66.13,117.67,64.9,115.7,63.39Zm4.75,3c2.55-3,4.65-5.41,6.61-7.92.41-.53.64-1.87.32-2.15-.6-.56-1.9-1.12-2.47-.82a72.18,72.18,0,0,0-6.55,4c-.24.15-.33.52-.54.9l3.53-.16Z" transform="translate(-97.26 -55.37)"/><path d="M115.7,63.39c2,1.51,4.13,2.74,3.76,6a9,9,0,0,0,1.06,4.67c4.13,8.53,1.58,16.81-.9,25.05a4.64,4.64,0,0,1-3,2.45c-4.84,1.06-9.73.9-14-1.83-5.13-3.28-5.49-7.51-1.3-13.3h-4c1-2.53,1.9-3.84,4.52-4.78,3.21-1.14,5.83-3.94,8.72-6,.87-.62,1.8-1.17,2.7-1.76l.8.89c-.85,1.07-1.65,2.19-2.57,3.21-2.88,3.17-6.56,5.72-7.91,10.08-.82,2.64-1.72,5.54.94,7.53,3.05,2.28,6.23,4.9,10.51,3.29a3.6,3.6,0,0,0,1.94-2.11c2.17-8.21,4.19-16.33-1-24.44-1.48-2.33-1.31-5.71-1.9-8.6Z" transform="translate(-97.26 -55.37)"/><path d="M120.45,66.34l.9-6.14-3.53.16c.21-.38.3-.75.54-.9a72.18,72.18,0,0,1,6.55-4c.57-.3,1.87.26,2.47.82.32.28.09,1.62-.32,2.15C125.1,60.93,123,63.32,120.45,66.34Z" transform="translate(-97.26 -55.37)"/></svg>