<svg id="Layer_1" data-name="Layer 1" xmlns="http://www.w3.org/2000/svg" viewBox="0 0 61.91 74.96"><title>t</title><path d="M105.19,126.58a70.68,70.68,0,0,1-6.58,4.36,60,60,0,0,1-7.75,3.11,3.92,3.92,0,0,1-2.54.14,14.71,14.71,0,0,1-2.82-2,12.63,12.63,0,0,1,2.73-2c4.7-1.85,9.78-3,14.11-5.45,7-4,11.12-10.88,15-17.75,1-1.71,2.55-3.08,3.58-4.77,4.4-7.21,8.81-14.41,13-21.75,2.13-3.74,3.6-7.86,5.73-11.61.9-1.57,2.73-2.62,4.13-3.91-.17,1.91.17,4.07-.6,5.7-3.16,6.68-6.51,13.29-10.1,19.75-1.58,2.86-4,5.22-5.83,8-.58.88-.41,2.25-.59,3.4,1.19,0,2.5.37,3.53,0,4.52-1.73,8.95-3.69,13.43-5.53.85-.35,1.78-.53,3.76-1.1-1.1,1.65-1.43,2.68-2.12,3.07-5.73,3.27-11.39,6.55-18.35,6.83a8.54,8.54,0,0,0-5.91,3.62c-4.26,6.81-8.14,13.88-11.82,21-.86,1.66-1.06,4.43-.21,5.92.57,1,3.61,1.07,5.41.78,3.44-.58,6.79-1.71,10.41-2.67.3,1.68-.09,3.59-2.87,4.1-4.37.8-8.75,1.67-13.17,2.1-3.21.3-4.94-1.35-4.16-4.85.58-2.59,1.1-5.2,1.64-7.8Z" transform="translate(-85.5 -64.98)"/></svg>