<svg id="Layer_1" data-name="Layer 1" xmlns="http://www.w3.org/2000/svg" viewBox="0 0 40.25 23.74"><title>u</title><path d="M109.35,108.61c-3.23,5.3-14.55,9.07-20,7-3.92-1.51-5-5.37-3-9.59.66-1.39.52-3.13.82-4.7.16-.78.27-1.8.79-2.24a67.72,67.72,0,0,1,6.83-5.1c.61-.4,1.78,0,2.69.1-.21.87-.12,2.14-.67,2.55a22.62,22.62,0,0,0-7.5,10.34c-1.29,3.33.08,5.7,3.7,5.67C98.7,112.55,104.34,112,109.35,108.61Z" transform="translate(-85.32 -93.76)"/><path d="M125.57,115.25c-3.6,3.16-8.88,3-10.7-.34-2-3.56-5.07-7.32-.64-11.48.79-.73.77-2.27,1.28-3.37a12.45,12.45,0,0,1,2.14-3.77c.68-.66,2.08-.59,3.16-.85a9.44,9.44,0,0,1-.16,3c-.94,2.28-2.22,4.42-3.23,6.68-2.45,5.47-.37,8.79,5.71,9.28A13.51,13.51,0,0,1,125.57,115.25Z" transform="translate(-85.32 -93.76)"/></svg>