<svg id="Layer_1" data-name="Layer 1" xmlns="http://www.w3.org/2000/svg" viewBox="0 0 22.06 37.88"><title>v</title><path d="M79.46,71.23c.89-.32,2.9-1.62,3.5-1.14a5.83,5.83,0,0,1,1.9,4.28c-.3,6.69-1,13.37-1.44,20.06a16,16,0,0,0,.51,3.39l1.36.24c1.18-3.29,2.14-6.68,3.6-9.85,2.73-5.95,5.66-11.81,8.72-17.59.52-1,2.07-1.45,3.33-2.27,2.09,4.93-2,6.66-3.33,9.5-2.11,4.69-4.86,9.09-7,13.77-.76,1.67,0,4-.82,5.65a61,61,0,0,1-5.45,8.19c-.34.47-1.64.92-1.84.72-.82-.83-1.91-1.88-2-2.89-.26-5.47-.37-11-.27-16.42.06-3.23.83-6.45.86-9.68C81.16,75.54,80.25,73.87,79.46,71.23Z" transform="translate(-79.46 -68.35)"/></svg>