<svg id="Layer_1" data-name="Layer 1" xmlns="http://www.w3.org/2000/svg" viewBox="0 0 52.3 27.43"><title>w</title><path d="M71.1,75.45c1,1.44,2.13,2.42,2,3.11C71.93,83.8,70.5,89,69.25,94.18c-.18.74-.18,2,.24,2.29a3.37,3.37,0,0,0,2.63.26c3.85-1.28,7.94-2.23,11.36-4.27C86,91,87.63,88,89.59,85.62c1-1.23,1.74-2.78,2.91-3.83.78-.7,2.12-.77,3.22-1.12l.65,1.1c-1.71,2.06-3.43,4.11-5.11,6.2a10,10,0,0,0-1.88,2.76,18.7,18.7,0,0,0-.5,3.85c1.32.1,2.82.67,3.92.22,7.37-3,13.86-7,17.62-14.48a34.08,34.08,0,0,1,4.48-6.42c.51-.61,1.9-.49,2.89-.7.1.84.6,1.9.26,2.47-3.49,5.8-7.11,11.52-10.92,17.63l-2.39-3.63c-1.41,1.35-2.76,2.7-4.17,4-3.23,3-6.87,5-11.42,4.55-.9-.09-2.2-.44-2.57-1.09-1.69-3-3.34-2.25-5.75-.75A33.27,33.27,0,0,1,72,100.23c-4.74,1.27-6.72-.48-6-5.28.68-4.53,1.9-9,3-13.45C69.4,79.85,70.11,78.27,71.1,75.45Z" transform="translate(-65.86 -73.2)"/></svg>