<svg id="Layer_1" data-name="Layer 1" xmlns="http://www.w3.org/2000/svg" viewBox="0 0 47.72 29.65"><title>x</title><path d="M105.51,98.5c-1.08,1.93-2.56,4.18-5.88,4.22-2.37,0-4.76.28-7.11.11-4.48-.31-7.68-2.34-9.14-6.92-1.3-4-1.92-4-5.31-1.31-5.22,4.1-10.59,8-15.9,12a2.2,2.2,0,0,1-1,.53c-1.12.09-2.26.09-3.39.12a10.83,10.83,0,0,1,1.19-3c2.94-3.66,6.67-6.84,8.92-10.87C72,86,69.16,83.15,63.45,82a10.63,10.63,0,0,1-2.31-1.12c3.42-3.69,11.57-.91,12.14,4.19.34,3-.56,6.22-.9,9.34l.87.61c1.82-1.53,3.73-3,5.44-4.61C82.2,87,85.58,83.51,89,80.1a9.82,9.82,0,0,1,2.86-2.34c1-.37,2.21,0,3.33,0-.39,1.14-.48,2.58-1.24,3.36-1.8,1.84-4,3.26-5.89,5.06a6.44,6.44,0,0,0-1.24,8.26,10.25,10.25,0,0,0,6.3,4.3C97.2,99.35,101.43,98.66,105.51,98.5Z" transform="translate(-57.8 -77.6)"/></svg>