<svg id="Layer_1" data-name="Layer 1" xmlns="http://www.w3.org/2000/svg" viewBox="0 0 51.49 81.41"><title>y</title><path d="M113.25,96.59c-1.55.45-3.08,1-4.65,1.35-2.51.61-5,1.51-7.57,1.62-3.77.16-5.46-2.44-3.82-5.77a66.56,66.56,0,0,1,5-8c.29-.42,1.31-.34,2-.49.14.79.66,1.78.36,2.33-.83,1.5-2.13,2.74-3,4.24a14.46,14.46,0,0,0-.94,3.4c1.14.27,2.33.91,3.39.73,5.82-1,11.25-2.93,15.76-7,.66-.59,1.82-.61,2.75-.9-.14,1,0,2.23-.46,3-2.16,3.61-4.85,6.94-6.7,10.69-3.18,6.44-6,13.08-8.77,19.7-5.53,13-9,26.94-16.87,38.93-1.59,2.44-4.08,5-6.71,5.93-4.06,1.51-9.49-2.95-11.13-7.5s-.43-9.08.1-13.63c1.57-13.57,12.09-18.07,22.66-22.54.25-.11.66.13,2,.45-2.81,2.09-5,3.74-7.25,5.37-1.87,1.38-3.77,2.72-5.63,4.11-1.42,1.05-3.23,1.87-4.11,3.28-1.72,2.74-3.84,5.73-4.11,8.76-.4,4.63.34,9.44,1.2,14,.32,1.74,2.16,4.17,3.65,4.45s4.3-1.21,5.14-2.7c3.69-6.6,7.06-13.4,10.2-20.28,1.91-4.18,3.11-8.68,4.78-13,2.6-6.72,5.2-13.44,8.08-20,1.45-3.35,3.49-6.45,5.27-9.65Z" transform="translate(-71.08 -85.3)"/></svg>