<svg id="Layer_1" data-name="Layer 1" xmlns="http://www.w3.org/2000/svg" viewBox="0 0 39.75 26.84"><title>z</title><path d="M124.43,121.46c-3,5.68-34,15.25-39.75,11.89l25.37-21-.27-1.09a14.12,14.12,0,0,0-3.68,0c-3.92,1.1-7.73,2.63-11.69,3.5-1.57.35-4.54-.11-4.94-1-1-2.43,1.38-3,3.24-3.33,6.88-1.15,13.76-2.33,20.67-3.19,1.31-.16,2.79,1.07,4.18,1.66-.71,1.18-1.15,2.73-2.17,3.49-4.28,3.17-8.81,6-13.09,9.16-3.15,2.31-6.06,4.94-10,8.22,2.56,0,4.34.43,5.8-.07,7.65-2.61,15.2-5.49,22.83-8.17C121.87,121.17,123.05,121.46,124.43,121.46Z" transform="translate(-84.68 -107.2)"/></svg>