<svg id="Layer_1" data-name="Layer 1" xmlns="http://www.w3.org/2000/svg" viewBox="0 0 129.7 142.09"><title>A</title><path d="M9.79,127.24c-3.69,6.76-2.38,15.93,4,20.57A12.42,12.42,0,0,0,24,149.76c3.65-.93,6.39-3.7,8.67-6.55,2.59-3.23,4.56-7,6.72-10.54L61.69,96.3l9.67-15.77L95.1,41.8l16.31-26.6.26-.43-8.22-1.07,3.93,19.81,7.08,35.63,3.33,16.78,5.33,26.85,5.44,27.4.1.51a4.53,4.53,0,0,0,5.54,3.14,4.62,4.62,0,0,0,3.14-5.53l-4.67-23.51-6-30-2.84-14.27-7-35.26c-1.55-7.82-2.88-15.74-4.67-23.52,0-.12,0-.26-.07-.39a4.53,4.53,0,0,0-8.23-1.07L90.74,31.7,67.07,70.3,55.77,88.75,36.55,120.1l-9.19,15c-.33.54-.68,1.07-1,1.62-.06.11-.15.22-.2.33s0,0,0,.06l.44-.58-.53.66-.81,1a22.54,22.54,0,0,1-1.72,1.8c-.09.09-1.13.85-.34.31-.33.23-.67.41-1,.63-.95.61.77-.11-.22.09-.11,0-1.07.39-.39.14s-.21,0-.4,0a5,5,0,0,1-.67,0c.64.11.71.12.2,0l-1-.26c-1-.27.7.49-.18-.1-.29-.19-.6-.35-.89-.54.79.51.15.11-.06-.09s-.42-.43-.63-.65c.69.72,0-.08-.16-.27s-.35-.62-.52-.94c.52.95-.12-.38-.19-.63s-.18-.72-.26-1.08c-.2-.83,0-.1,0,.08-.07-.75,0-1.49,0-2.25,0-1.18-.25.86,0-.29.09-.36.15-.72.26-1.08a9.77,9.77,0,0,1,.35-1c-.4,1,.08-.07.17-.23a4.58,4.58,0,0,0-1.62-6.16,4.56,4.56,0,0,0-6.15,1.62Z" transform="translate(-7.75 -8.04)"/><path d="M63.54,89.43h58.53a4.5,4.5,0,0,0,0-9H63.54a4.5,4.5,0,1,0,0,9Z" transform="translate(-7.75 -8.04)"/></svg>