<svg id="Layer_1" data-name="Layer 1" xmlns="http://www.w3.org/2000/svg" viewBox="0 0 139.37 183.24"><title>B</title><path d="M139.57,103.38c-4.8-11.17-11.94-20.34-22.94-26.25a60,60,0,0,0,5.59-8.75c6.52-13.46,6.22-26.65-2.45-39.06-5.37-7.68-13.33-12.14-22-15.28-15.62-5.68-31.7-6.55-48-3.68A65.4,65.4,0,0,0,13.91,28.82c-6.78,6.84-10.52,15-9.26,24.85,1.11,8.72,9,13.38,16.5,9.61a12.24,12.24,0,0,0,4.64-3.67V55.46a7.53,7.53,0,0,1-5.31,2c-7.13,0-9.36-7.56-6.74-12.34a9.15,9.15,0,0,1,.6-1.81,8,8,0,0,1,1.86-3.72,27.84,27.84,0,0,1,8.32-10.45,56.2,56.2,0,0,1,31.09-12.2c12.06-1,23.76.39,34.68,6,7.52,3.87,13.94,9,17.36,17,4.06,9.49,3.26,18.73,0,27.8a5.41,5.41,0,0,1-.62,2,5.89,5.89,0,0,1-.31,1.82A5.38,5.38,0,0,1,106,74a7.86,7.86,0,0,1,2.35,3.88,25,25,0,0,1,1.92,5.66c.12.61.19,1.2.26,1.78.58-.34,1.05-.1,1.77.48a34.83,34.83,0,0,1,11.94,18.81c2.75,10.29,1.77,20.58-1.07,30.64-5.72,20.26-19.19,33.86-37.89,42.56-11.93,5.55-24.66,7.07-37.68,6.19-9.13-.61-17.83-2.89-25.53-8.12-4.74-3.22-8.35-7.35-9.85-13-1.43-5.36-1.48-10.65,1.66-15.5a6.59,6.59,0,0,1,.93-1.14,7.33,7.33,0,0,1,6.8-3.91,7.89,7.89,0,0,1,4.14,1.1v-9.62a9.4,9.4,0,0,0-1.92-1,12.69,12.69,0,0,0-14.93,4.34C2.13,146.68,1.57,157,6,167.52c3.67,8.67,10.93,13.88,19.12,17.9,10.32,5.07,21.34,6.71,32.73,6.57,15.95-.2,31.26-3.2,45.26-11.06,21.31-12,35.8-29,38.87-54.11C143,118.83,142.81,110.92,139.57,103.38Z" transform="translate(-3.16 -8.76)"/><path d="M54.92,158.67V42.59H42.62a8.14,8.14,0,0,1-.87-.05l-.56.32A8,8,0,0,1,42,46.44V158.67Z" transform="translate(-3.16 -8.76)"/><path d="M105.25,75.21C101.5,80,96.38,80.26,90.62,80.3c-6.43,0-6.44,10,0,10,8.14-.06,16.38-1.18,21.71-8,1.67-2.14,2-5,0-7.07-1.71-1.74-5.42-2.13-7.08,0Z" transform="translate(-3.16 -8.76)"/></svg>