<svg id="Layer_1" data-name="Layer 1" xmlns="http://www.w3.org/2000/svg" viewBox="0 0 85.28 112.47"><defs><style>.cls-1{fill:#8f8f8f;}</style></defs><title>C</title><path d="M118.55,48.26a81.77,81.77,0,0,0-26.77-4.67c-11.86.1-23,2.59-32.73,9.94a45.58,45.58,0,0,0-16,23.2c-5,15.73-4.35,31.23,2.82,46.15,4.76,9.92,13,16.2,23.19,20,8,2.95,16.34,3.57,24.79,2.93a107,107,0,0,0,23.73-4.89c-.3,2.11-.6,4.15-.89,6.19-.07.46-.43.48-.79.57a114.83,114.83,0,0,1-16.15,2.8,88.73,88.73,0,0,1-18.07.28c-13.56-1.44-25.63-6.13-35.08-16.38a46.77,46.77,0,0,1-11.27-22.78,68.71,68.71,0,0,1,5.41-45c6.31-13,16.88-20.94,30.57-25a72.15,72.15,0,0,1,20.08-2.93,116.36,116.36,0,0,1,25.91,2.64c.74.16,1,.42,1,1.14.11,1.72.33,3.42.5,5.13C118.86,47.8,119.14,48.2,118.55,48.26Z" transform="translate(-33.79 -38.59)"/><path class="cls-1" d="M118.55,48.26c.43-.13.16-.52.29-.76.21.27.34.57.11.86C118.85,48.49,118.66,48.4,118.55,48.26Z" transform="translate(-33.79 -38.59)"/></svg>