<svg id="Layer_1" data-name="Layer 1" xmlns="http://www.w3.org/2000/svg" viewBox="0 0 80.51 100.82"><title>D</title><path d="M48.26,142.46V41.64H81.2a51,51,0,0,1,20.88,4,41.61,41.61,0,0,1,14.84,10.8,45.86,45.86,0,0,1,8.87,16,62.68,62.68,0,0,1,3,19.53,61.41,61.41,0,0,1-3.33,20.8,45.41,45.41,0,0,1-9.52,15.9,42.32,42.32,0,0,1-15,10.23,51.54,51.54,0,0,1-19.74,3.62ZM123.8,91.91A57.93,57.93,0,0,0,121,73.59,40.39,40.39,0,0,0,112.8,59.1a37.67,37.67,0,0,0-13.42-9.51A45.8,45.8,0,0,0,81.2,46.18h-28v91.73h28a45.68,45.68,0,0,0,18.46-3.48A37.18,37.18,0,0,0,113,124.78a40.58,40.58,0,0,0,8.09-14.63A59.58,59.58,0,0,0,123.8,91.91Z" transform="translate(-48.26 -41.64)"/></svg>