<svg id="Layer_1" data-name="Layer 1" xmlns="http://www.w3.org/2000/svg" viewBox="0 0 93.69 164.3"><title>E</title><path d="M121,154.16a19.44,19.44,0,0,1-2.45-.78,1.15,1.15,0,0,0-1.67.45c-7.78,11-19.75,16-34.71,16.19a41.48,41.48,0,0,1-29.1-11c-11.47-10.45-15.27-22.83-12-36.64a35.82,35.82,0,0,1,13.59-20.59c8.9-6.82,19.47-9.62,31.49-8.68a48.71,48.71,0,0,1,9.5,1.69,4.61,4.61,0,0,1,.89-.52l.15-.13V92.87a5.62,5.62,0,0,1-.11-2.2l-.32-.11a53.59,53.59,0,0,0-13.57-1.51c-1.08,0-2.16,0-3.23,0A48,48,0,0,0,49.9,100.2c-9.1,7.59-14,16.93-14.77,27.57-1,14.69,5.17,27.15,18.36,37A46,46,0,0,0,82.17,174a55.7,55.7,0,0,0,22.4-4.7c7.3-3.28,13.23-7.74,17-14C121.9,154.64,121.85,154.37,121,154.16Z" transform="translate(-29.52 -11.19)"/><path d="M121.43,152.72c-1.3-.35-2.93-1.35-4.3-.89s-2.14,2.17-3,3.21a34.54,34.54,0,0,1-5.9,5.69,38.29,38.29,0,0,1-15.06,6.64c-12.38,2.66-25.48.86-35.78-6.76a42.17,42.17,0,0,1-12.27-14.09,32.56,32.56,0,0,1-3.57-17,36.31,36.31,0,0,1,5.33-17.12A38.28,38.28,0,0,1,60.8,99.56a43,43,0,0,1,20.7-5.14,50.21,50.21,0,0,1,12.09,1.35c.94.23,1.93.73,2.87.3a3,3,0,0,0,1.73-1.54c.35-1.22-.19-2.62-.06-3.86A1.54,1.54,0,0,0,97,89.22a29.1,29.1,0,0,0-5.57-1.12,57,57,0,0,0-6.12-.52,66.78,66.78,0,0,0-11.48.49A49.31,49.31,0,0,0,54.49,95c-11.63,7.27-20,19.07-20.87,32.94a40.58,40.58,0,0,0,2.84,18.17,44.66,44.66,0,0,0,10.89,15.47,51.61,51.61,0,0,0,17.48,11,51.31,51.31,0,0,0,21.64,2.68,56.22,56.22,0,0,0,22-6.24,41.73,41.73,0,0,0,8.3-5.7,26.09,26.09,0,0,0,6.2-7.59c.69-1.45-.07-2.61-1.52-3.06-1.84-.58-2.63,2.32-.79,2.89l-.41-1.1-.39.65c-.2.32-.41.63-.62.94-.43.61-.87,1.21-1.35,1.78a29.67,29.67,0,0,1-3.1,3.24,38.33,38.33,0,0,1-7.66,5.27,52,52,0,0,1-20,5.86,49.79,49.79,0,0,1-20-2,46.88,46.88,0,0,1-16.35-9.59A43.74,43.74,0,0,1,40,146.86a37.1,37.1,0,0,1-3.52-16.16,36.61,36.61,0,0,1,4.16-17.1,42.39,42.39,0,0,1,12.43-14,46.66,46.66,0,0,1,19.31-8.24,59.89,59.89,0,0,1,11.74-.77c3.93,0,8.33.24,12.07,1.57l-1.1-1.45a33.33,33.33,0,0,0,.11,3.46l.44-1.06a7.45,7.45,0,0,1-.74.41l1.16-.15C83.22,89.75,68.67,91,57.24,98.18a40.63,40.63,0,0,0-13.44,13.5,39.81,39.81,0,0,0-5.23,17.46c-.85,12.56,5.21,23.92,14.62,31.93a43.36,43.36,0,0,0,15.88,8.68,49.25,49.25,0,0,0,19,1.44,45.54,45.54,0,0,0,18.29-5.63,37.11,37.11,0,0,0,7.32-5.58,38.85,38.85,0,0,0,3.25-3.65l.66-.87c.15-.19.29-.38.43-.58s.23-.32-.14-.17a4.72,4.72,0,0,1,1.12.41c.54.19,1.09.34,1.65.49A1.5,1.5,0,0,0,121.43,152.72Z" transform="translate(-29.52 -11.19)"/><path d="M115.26,30.18a34.11,34.11,0,0,0-9.39-9.84c-7.82-5.56-17-7.73-27.13-7.65-1.08,0-2.16,0-3.23,0A48.08,48.08,0,0,0,45.9,23.84c-9.1,7.6-14,16.94-14.77,27.57-1,14.7,5.17,27.16,18.36,37a46,46,0,0,0,28.68,9.21A56.94,56.94,0,0,0,95.68,94.8a4.55,4.55,0,0,1,.91-.54l.15-.13V92.86s0,0,0-.06a5.88,5.88,0,0,1-.12-2.13,4,4,0,0,1-.52-.19,50.89,50.89,0,0,1-17.9,3.18,41.47,41.47,0,0,1-29.1-11C37.64,72.2,33.84,59.82,37.12,46A35.86,35.86,0,0,1,50.71,25.41c8.9-6.82,19.47-9.62,31.49-8.67,12.69,1,22.42,5.87,28.69,15.22.41.61.73.62,1.36.34a24.21,24.21,0,0,1,2.49-1C115.49,31.09,115.65,30.82,115.26,30.18Z" transform="translate(-29.52 -11.19)"/><path d="M116.55,29.42a37.56,37.56,0,0,0-16.4-14.09,51.7,51.7,0,0,0-21.41-4.14,54.5,54.5,0,0,0-21.56,4A49.1,49.1,0,0,0,40,27.46a40.59,40.59,0,0,0-9.27,36.89C33.84,77.25,43.94,88.07,55.6,94a48.42,48.42,0,0,0,20.84,5.13,60.11,60.11,0,0,0,12.2-1,53.42,53.42,0,0,0,5.72-1.36c1.4-.41,3.7-.93,3.88-2.68.12-1.15-.21-2.27-.11-3.43A1.49,1.49,0,0,0,97,89.23c-1.49-.5-3,.43-4.44.87a46.54,46.54,0,0,1-4.93,1.19,54.19,54.19,0,0,1-10.72.87,40.37,40.37,0,0,1-18.12-4.5c-10.54-5.53-19.43-16-21.06-28a36,36,0,0,1,13-32.43C60.94,19,74.5,16.56,87.22,18.88a35.07,35.07,0,0,1,17,7.68,32.92,32.92,0,0,1,3.12,3.13c.52.6,1,1.23,1.49,1.87a10.64,10.64,0,0,0,1.44,1.88c1.4,1.17,3.08,0,4.5-.52,1.69-.62,2.8-1.63,1.83-3.5-.89-1.71-3.48-.19-2.59,1.52l.38-1.06q-.42.14-.84.3c-.42.15-.83.33-1.24.5l-.36.15c-.53.13-.45.24.25.33a7.28,7.28,0,0,0-.57-.83,37.07,37.07,0,0,0-2.86-3.53,33.61,33.61,0,0,0-6.22-5.25,40.41,40.41,0,0,0-16.37-5.87c-13.22-1.9-26.59.77-37.15,9.19a38.79,38.79,0,0,0-14.4,33c.94,12.54,8.85,23.45,19.15,30.25A43,43,0,0,0,73.64,95a53.81,53.81,0,0,0,11.83-.33,51.08,51.08,0,0,0,5.9-1.1c.95-.24,1.89-.5,2.81-.8.4-.13.79-.26,1.17-.4l.77-.28c-.24-.07-.21,0,.11.05l-1.1-1.45c-.1,1.15.11,2.31.11,3.46l.44-1.06a6,6,0,0,1-2.12.82c-.87.26-1.74.49-2.61.7a53,53,0,0,1-5.86,1.09A57.1,57.1,0,0,1,74.31,96,44.36,44.36,0,0,1,55.9,90.77C45.6,85.14,36.7,75.6,33.71,64.06a37.42,37.42,0,0,1,7.21-33.14A47.12,47.12,0,0,1,74.65,14.24c7.5-.43,15.27.25,22.31,3a35,35,0,0,1,17,13.72C115,32.57,117.58,31.07,116.55,29.42Z" transform="translate(-29.52 -11.19)"/><path d="M74,94.4a18.71,18.71,0,0,0,5.61,2.09,16.38,16.38,0,0,0,6.2.16,3.63,3.63,0,0,0,2.33-1.44,2.4,2.4,0,0,0-.37-3A7.37,7.37,0,0,0,85,90.79a13.93,13.93,0,0,0-2.92-.55,13.28,13.28,0,0,0-6.69,1.23A1.48,1.48,0,0,0,74.66,93a1.57,1.57,0,0,0,1.08,1.25,12.64,12.64,0,0,0,7.59.55,1.5,1.5,0,0,0,1-1.84,1.52,1.52,0,0,0-1.84-1,10,10,0,0,1-6-.55l.36,2.74a10.29,10.29,0,0,1,5.28-.81,10,10,0,0,1,2.41.57c.1,0,1.08.52,1.1.5s-.1-.46-.08-.55a.38.38,0,0,1,.12-.28c-.13.12-.15.14-.06.05a6.46,6.46,0,0,1-2,.31A15.71,15.71,0,0,1,81,93.69a16.26,16.26,0,0,1-5.42-1.88A1.5,1.5,0,0,0,74,94.4Z" transform="translate(-29.52 -11.19)"/><path d="M96.17,93.66a1.5,1.5,0,0,0,0-3,1.5,1.5,0,0,0,0,3Z" transform="translate(-29.52 -11.19)"/><path d="M95.82,94.36a1.5,1.5,0,0,0,0-3,1.5,1.5,0,0,0,0,3Z" transform="translate(-29.52 -11.19)"/></svg>