<svg id="Layer_1" data-name="Layer 1" xmlns="http://www.w3.org/2000/svg" viewBox="0 0 115.18 147.82"><title>F</title><path d="M147.3,30.31c-.39-4.11-2.58-6.55-6.41-7.08a6,6,0,0,0-4.74,1.55h.28c8.7,0,9.19,12.7,1.53,14.2A7,7,0,0,1,134.1,40l-.45,0c-.43.11-.86.22-1.3.29-5.38.92-10.64,0-15.83-1.24-6.9-1.65-13.73-3.6-20.63-5.25-8.82-2.11-17.75-1.8-26.65-.59-7.76,1.07-15.26,3-22.11,7-5.6,3.25-10.41,7.33-13.34,13.24a14.8,14.8,0,0,0,.35,14c.29.56.64,1.17,1.41,1,.92-.13.54-1,.72-1.51a1.25,1.25,0,0,0,0-.51c-.68-9.48,8.91-19.16,17.2-20.79l.29-.06A12.91,12.91,0,0,1,55,45.3,14.1,14.1,0,0,1,56.85,45l.41,0c.71-.22,1.47-.34,2.19-.54A19.75,19.75,0,0,1,62,43.8a26.08,26.08,0,0,1,2.64-.21h.1l.45-.1A11.24,11.24,0,0,1,67,43.16a6.81,6.81,0,0,1,1.55.13c.15,0,1,.2.79.2l.47,0a3.82,3.82,0,0,1,.91-.09,92.35,92.35,0,0,1,23.63,2.89c9.49,2.48,19.13,3.68,28.94,2.59a36.16,36.16,0,0,0,19.07-7.5C145.89,38.58,147.75,35,147.3,30.31Z" transform="translate(-32.19 -23.18)"/><path d="M116.26,64.52a5.34,5.34,0,0,0-1.49.06,7,7,0,0,1,3.41,6.92,8.19,8.19,0,0,1,.07,2,7.45,7.45,0,0,1-2.56,6.4,6.28,6.28,0,0,1-3.12,2,14.44,14.44,0,0,1-6.34,2.37c-12.12,1.69-24.12.49-36.08-1.54-1-.18-1.06-.7-1.06-1.52q0-14.2,0-28.42H62.82V171H68.9V100.65a8.21,8.21,0,0,1,.18-1.7c0-1.66,0-3.31,0-5,0-1.19,0-1.77,1.59-1.43a85.4,85.4,0,0,0,25.8,1.77A38.77,38.77,0,0,0,119,84.75,14,14,0,0,0,123.9,72C123.36,67.67,120.67,65,116.26,64.52Z" transform="translate(-32.19 -23.18)"/></svg>