<svg id="Layer_1" data-name="Layer 1" xmlns="http://www.w3.org/2000/svg" viewBox="0 0 129.36 129.12"><defs><style>.cls-1{fill:#bfbfbf;}.cls-2{fill:gray;}.cls-3{fill:#c1c1c1;}.cls-4{fill:#404040;}.cls-5{fill:#424242;}.cls-6{fill:#bebebe;}.cls-7{fill:#fefefe;}</style></defs><title>Fonts</title><path d="M96.48,24.24h1.2c2.32.34,4.66.35,7,.78a63.26,63.26,0,0,1,21,7.89,64.43,64.43,0,0,1,26,28.7,61,61,0,0,1,5.53,20.25,44.08,44.08,0,0,1,.17,5.86v2.13a59.11,59.11,0,0,1-5.71,26,64.86,64.86,0,0,1-51.19,37.22,26.76,26.76,0,0,1-4.3.18H89.44a56.94,56.94,0,0,1-23.63-5.53,63.37,63.37,0,0,1-19.67-13.9,64.58,64.58,0,0,1-14.45-23.25,57.76,57.76,0,0,1-3.28-14.21,49.16,49.16,0,0,1-.21-5.15V86.43a58.21,58.21,0,0,1,6.1-25.66,62.69,62.69,0,0,1,9.63-14.7A64.78,64.78,0,0,1,82.27,24.76c1.85-.3,3.73-.2,5.57-.52H89a2.43,2.43,0,0,0,1.68,0H94.8A2.43,2.43,0,0,0,96.48,24.24Z" transform="translate(-28.08 -24.24)"/><path class="cls-1" d="M28.08,86.16a.34.34,0,0,1,.2,0v5.3h-.21Z" transform="translate(-28.08 -24.24)"/><path class="cls-2" d="M90.7,153.16h4.11c.07,0,.09.1.07.15s-.06.06-.08.06H90.72c-.07,0-.1-.08-.08-.13S90.68,153.16,90.7,153.16Z" transform="translate(-28.08 -24.24)"/><path class="cls-3" d="M157.24,87.59a.2.2,0,0,1,.2,0V90h-.21Z" transform="translate(-28.08 -24.24)"/><path class="cls-4" d="M90.72,24.24a1.38,1.38,0,0,1-1.68,0Z" transform="translate(-28.08 -24.24)"/><path class="cls-5" d="M96.48,24.24a1.38,1.38,0,0,1-1.68,0Z" transform="translate(-28.08 -24.24)"/><path class="cls-6" d="M90.7,153.16a1.23,1.23,0,0,1,0,.2H89.28c0-.07,0-.14,0-.2Z" transform="translate(-28.08 -24.24)"/><path class="cls-3" d="M94.8,153.36a.74.74,0,0,1,0-.21h1.44a.74.74,0,0,0,0,.21Z" transform="translate(-28.08 -24.24)"/><path class="cls-7" d="M154.28,88.85a61.52,61.52,0,1,1-60.71-61.6A61.58,61.58,0,0,1,154.28,88.85Z" transform="translate(-28.08 -24.24)"/></svg>