<svg id="Layer_1" data-name="Layer 1" xmlns="http://www.w3.org/2000/svg" viewBox="0 0 87.19 102.24"><title>G</title><path d="M109.09,113h23.29v21.87q-8.23,9.51-16.83,13.92a39.2,39.2,0,0,1-18.1,4.4,37.51,37.51,0,0,1-16.76-3.84,44.41,44.41,0,0,1-13.56-10.22A49.06,49.06,0,0,1,58,124.34a47.2,47.2,0,0,1-3.33-17.61,52,52,0,0,1,2.84-17,47.58,47.58,0,0,1,8.16-14.83A41.76,41.76,0,0,1,78.63,64.35a35.83,35.83,0,0,1,17.12-4,43.32,43.32,0,0,1,20.16,4.54,33.05,33.05,0,0,1,13,12.53h5.35a44.49,44.49,0,0,0-5.68-8.62,33.65,33.65,0,0,0-8.1-7,39.82,39.82,0,0,0-10.79-4.54,53.28,53.28,0,0,0-13.77-1.64,40.53,40.53,0,0,0-18.53,4.26A47.61,47.61,0,0,0,62.73,71.23a52.17,52.17,0,0,0-9.58,16.33,54.78,54.78,0,0,0-3.41,19.17,50.8,50.8,0,0,0,3.55,18.53,55.51,55.51,0,0,0,9.8,16.41,49.09,49.09,0,0,0,15,11.71,41.27,41.27,0,0,0,19.1,4.47q19,0,33.89-15.76a2.3,2.3,0,0,1,.93-1.22l0,0,.44-.34a2.46,2.46,0,0,1,.42-.6,2.67,2.67,0,0,1,1-.59,2.35,2.35,0,0,1,.56-.4,2.54,2.54,0,0,1,.23-.34,8.09,8.09,0,0,1,2.3-2.45v-27.4H109.09Z" transform="translate(-49.74 -55.61)"/></svg>