<svg id="Layer_1" data-name="Layer 1" xmlns="http://www.w3.org/2000/svg" viewBox="0 0 72.37 106.46"><title>H</title><path d="M75.54,133,91.33,35a1.1,1.1,0,0,0,0-.16,16.65,16.65,0,0,1,.17-2.57l-2.06-.11L80.73,84.81l-.08,0L79.78,90l.09,0-7.11,42.84Z" transform="translate(-20.67 -28.04)"/><path d="M77,133.4l1.61-10,3.86-23.92,4.6-28.6L91,46.46c.59-3.67,1.2-7.33,1.77-11,.17-1.05.12-2.12.26-3.17.11-.84-.78-1.47-1.5-1.5l-2.06-.11A1.5,1.5,0,0,0,88,31.78L85.08,49.51l-4.72,28.4-1.07,6.5,1.84-1-.08,0a1.51,1.51,0,0,0-1.85,1l-.86,5.2a1.54,1.54,0,0,0,1,1.85l.08,0-1-1.85L76,104.13l-3.81,23-.89,5.32a1.53,1.53,0,0,0,1.45,1.9l2.78.14c1.93.1,1.93-2.9,0-3l-2.78-.14,1.44,1.9,2.41-14.52,3.82-23,.88-5.32a1.54,1.54,0,0,0-1-1.85l-.09,0,1,1.84.86-5.2-1.84,1,.08,0a1.51,1.51,0,0,0,1.85-1.05l2.94-17.73,4.71-28.4,1.08-6.5-1.44,1.1,2.06.11L90,32.29c-.2,1.52-.25,3-.5,4.52l-1.09,6.82L84.68,66.9l-4.6,28.57-4,24.84c-.65,4-1.34,8.08-2,12.12a1,1,0,0,0,0,.17C73.79,134.49,76.68,135.3,77,133.4Z" transform="translate(-20.67 -28.04)"/><path d="M41.12,29.69l-2.77-.15c0,.3-.07.6-.12.9l-16.09,99.8,2.28.12,9-54.56h0l.83-5a1.42,1.42,0,0,1,0-.2h0Z" transform="translate(-20.67 -28.04)"/><path d="M41.12,28.19,38.35,28a1.54,1.54,0,0,0-1.5,1.5c-.42,3.46-1.1,6.91-1.65,10.35l-3.84,23.8L26.71,92.52l-4,25c-.65,4.06-1.34,8.11-2,12.18l0,.18a1.52,1.52,0,0,0,1.44,1.89l2.28.12a1.5,1.5,0,0,0,1.44-1.1l3.06-18.43L33.8,83l1.12-6.76-1.85,1h0a1.5,1.5,0,0,0,1.84-1c.29-1.73.53-3.48.87-5.2a1.55,1.55,0,0,0-1-1.85h0L35.78,71l5.94-35.81.85-5.11c.31-1.88-2.58-2.7-2.89-.79l-5.94,35.8-.85,5.11a1.52,1.52,0,0,0,1,1.84h0L32.9,70.2c-.34,1.73-.58,3.47-.87,5.21l1.84-1h0a1.51,1.51,0,0,0-1.85,1L29,93.83l-4.88,29.38L23,130l1.45-1.1-2.28-.12,1.45,1.9,1.61-10,3.87-24,4.67-29,4-24.9c.64-3.94,1.3-7.88,1.91-11.82.07-.47.13-.95.19-1.42L38.35,31l2.77.15C43.05,31.29,43.05,28.28,41.12,28.19Z" transform="translate(-20.67 -28.04)"/><path d="M32.54,82.6H80.62a1.5,1.5,0,0,0,0-3H32.54a1.5,1.5,0,0,0,0,3Z" transform="translate(-20.67 -28.04)"/></svg>