<svg id="Layer_1" data-name="Layer 1" xmlns="http://www.w3.org/2000/svg" viewBox="0 0 80.41 93.79"><title>I</title><path d="M128.8,43.08c-.45.26-.92.54-1.42.85a39.8,39.8,0,0,0-7.14,5.51l-4.78,1.39-5.59,1.25q-12.45,2.84-18.25,6.31Q80.19,65.11,80.18,79q0,11.44,8.65,16.57-6.1,12.9-9.71,19.07-12.25,20.87-27.55,20.87a17.53,17.53,0,0,1-2.86-.23c0,.41-.07.81-.12,1.22a22.51,22.51,0,0,0,4.2.4q13.37,0,26.12-12.35a43.38,43.38,0,0,0,7.22-8.87,96.12,96.12,0,0,0,6.56-14.42l1.42-3.82a10.43,10.43,0,0,0,1.78.14,16.5,16.5,0,0,0,3.41-.35,10.67,10.67,0,0,1,.71-1.39,14.34,14.34,0,0,1-3.92.56,6.67,6.67,0,0,1-1.42-.13l.81-2.08q12.4-31.66,25.06-44l1.25-.49a6.51,6.51,0,0,1,2.34-1.84,5.88,5.88,0,0,1,4.55-2.12l.32,0A14.69,14.69,0,0,1,128.8,43.08ZM89.23,94.72Q83,91.12,83,82.39q0-9.08,7.34-16.87t19.75-11.81c2.41-.79,4.24-1.41,5.49-1.88,1.53-.5,2.68-.87,3.46-1.1Q102.7,65.42,89.23,94.72Z" transform="translate(-48.59 -43.08)"/></svg>