<svg id="Layer_1" data-name="Layer 1" xmlns="http://www.w3.org/2000/svg" viewBox="0 0 52.66 99.63"><title>J</title><path d="M109.34,44.59s0,0,0-.07a3.32,3.32,0,0,1,.06-.44c-.25.35-.51.7-.74,1l-.71.36h0a.11.11,0,0,1,.1.1v.33a.33.33,0,0,1,0,.14.28.28,0,0,1-.06.14l-.1.11-.1.11,0,.09a.34.34,0,0,1-.08.09l0,0Q95.16,63.51,87.57,94.25a10.7,10.7,0,0,1-.66,2.53c-2.18,8.44-4,14.8-5.48,19q-7.87,22.49-22,24.86a14.6,14.6,0,0,1-2.68.22c0,.41.08.81.09,1.22a19.19,19.19,0,0,0,4-.26q12.36-2.09,22.12-16.23a43.36,43.36,0,0,0,5.2-9.88,98.7,98.7,0,0,0,3.67-15.24l.69-4h.19c0-.42.11-.83.2-1.24h-.07l.41-2.18q6.21-33.15,15.88-47.28l.29-.19a2.8,2.8,0,0,1,0-.71l0-.29Z" transform="translate(-56.73 -42.48)"/><path d="M107.88,42.48a78.14,78.14,0,0,0-23.45,5.77c-3.61,1.52-6.94,3.53-11,3.09s-7.84-2.62-11.34-4.63a1.5,1.5,0,0,0-1.51,2.59c3.61,2.07,7.42,4.18,11.58,4.87a15.67,15.67,0,0,0,5.59-.05,26.9,26.9,0,0,0,5.75-2.21,74.82,74.82,0,0,1,24.39-6.43c1.91-.17,1.92-3.17,0-3Z" transform="translate(-56.73 -42.48)"/></svg>