<svg id="Layer_1" data-name="Layer 1" xmlns="http://www.w3.org/2000/svg" viewBox="0 0 146.56 137.53"><title>K</title><path d="M13,48.77c-.76.67.58-.51.1-.09-.11.1-.67.48-.07.07s-.21,0-.21,0,1.17-.09.43-.09.35,0,.41.09a2.15,2.15,0,0,0-.64-.16c-.5,0,.73.46.31.15a3,3,0,0,0-.74-.42c-.49-.14.74.73.1.08-.14-.14-.3-.27-.44-.42s-.41-.38-.41-.46c0,.23.44.69.13.15-.15-.25-.86-1.77-.46-.67-.2-.55-.33-1.09-.48-1.65,0,.17.07,1,0,.09,0-.26,0-.52,0-.79s0-.52,0-.79c0-1.19-.15.53,0-.15A15.83,15.83,0,0,1,11.39,42c.07-.24.17-.48.25-.72-.31.94.07-.11.16-.29.26-.48.57-.93.87-1.39s-.51.5-.05.08c.21-.2.39-.44.6-.64s.34-.29.5-.45c-.6.61-.37.25-.12.1s.47-.28.7-.41c.81-.48-.05-.1-.07,0,0-.11.67-.16.78-.22.48-.25-.91-.05.09,0h.74c.3,0,.72.2-.09,0,.55.16,1.09.29,1.63.47s-.83-.53.17.1c.28.18.58.33.86.5s.56.37.84.57c-.16-.12-.58-.5.05.07.42.38.83.76,1.22,1.17.24.25.47.51.69.77s.69.85.19.2c.42.55.81,1.13,1.18,1.7a51.76,51.76,0,0,1,3.62,6.87l.8,1.82c.14.33.29.67.43,1-.08-.18-.28-.69.06.14.54,1.3,1.07,2.6,1.58,3.91A199.87,199.87,0,0,1,38.41,89a193.23,193.23,0,0,1,4.11,32.74,79.4,79.4,0,0,1,0,8.45c0,.6-.08,1.2-.14,1.8,0-.09-.16,1.37-.08.74s-.06.41-.08.51a31.58,31.58,0,0,1-.92,4.1c-.18.6-.42,1.18-.61,1.78s.47-.91-.08.21l-.35.7c-.23.47-.48.92-.75,1.36-.17.27-.34.54-.52.8s-.47.64-.07.14a17.15,17.15,0,0,1-1.21,1.35c-.27.26-1.19,1-.4.42-.4.29-.83.53-1.25.8l-.14.08q-.67.32.21-.06c-.13.14-.57.2-.74.25a3.52,3.52,0,0,1-.76.17c0-.08,1.21,0,.28-.07h-.62c-1,0,.71.25.21,0a3.21,3.21,0,0,0-.53-.15c-.55-.08.94.56.17.07l-.5-.29-.36-.25c-.27-.19-.16-.11.32.25-.16,0-.74-.74-.88-.87-.73-.69.34.58,0,0l-.37-.53c-.27-.42-.5-.86-.73-1.31-.37-.71,0,0,.05.15-.11-.32-.23-.64-.33-1s-.12-.44-.17-.67c0-.05-.3-1.14-.11-.41s0-.32,0-.42,0-.46,0-.68,0-.46,0-.69c0-.91-.05.11,0,.18-.06-.21.13-.63.18-.84s.39-1.18.18-.63.08-.15.15-.28.3-.5.44-.75.52-.49-.1.11c.16-.15.29-.33.44-.48s.32-.29.47-.44c.68-.68-.55.21,0,0s1-.87,1.5-.84c0,0-1,.36-.2.11l.59-.2c.45-.13.9-.24,1.36-.33l.61-.11c.65-.14-1.15.08-.13,0,.55,0,1.09-.07,1.64-.08a38,38,0,0,1,3.85.16l.85.09c.16,0,.88.14.08,0,.7.12,1.41.23,2.11.37a51,51,0,0,1,7.73,2.24c.62.23,1.24.47,1.85.72.1,0,.79.33.16.06l.82.36c1.37.61,2.72,1.26,4.06,1.94,9.91,5,18.86,11.72,28.51,17.2,9,5.1,18.83,9.37,29.3,9.45a36.73,36.73,0,0,0,25.5-9.78,39.27,39.27,0,0,0,5-5.86c1.37-1.92.4-5.09-1.62-6.16a4.64,4.64,0,0,0-6.16,1.62l-.7,1c.11-.14.52-.64,0,0-.41.49-.83,1-1.26,1.45a31.31,31.31,0,0,1-2.68,2.6l-.85.69c.13-.1.73-.53.05,0-.48.35-1,.7-1.47,1a29.84,29.84,0,0,1-3.06,1.75c-.25.13-1.89.85-.83.41-.53.22-1.07.43-1.61.62-1.09.38-2.19.7-3.31,1-.55.13-1.11.24-1.68.34l-.84.14c-.71.14,1.13-.12,0,0s-2.27.21-3.41.23a32.74,32.74,0,0,1-3.43-.09c-.51,0-1-.08-1.53-.14-.89-.1-.09-.19,0,0a7.78,7.78,0,0,0-1-.16,46.78,46.78,0,0,1-7.72-2.07c-.69-.24-1.36-.5-2-.76l-.81-.33c-1.32-.54.77.36-.53-.23s-2.68-1.23-4-1.89c-2.67-1.35-5.27-2.83-7.84-4.37C78.9,141.2,68.88,133.86,57.37,129.1A51.18,51.18,0,0,0,39.81,125c-5.12-.18-10.82.85-14.33,4.93-4.1,4.79-4.32,11.27-1.64,16.81,2.49,5.15,7.74,8.39,13.47,7.17s9.73-6.74,11.82-11.89c2.32-5.72,2.62-12.18,2.46-18.28A209.33,209.33,0,0,0,47,86.37,197.39,197.39,0,0,0,36.59,52.09c-2.36-5.76-4.76-11.57-8.75-16.42S17.15,27.38,11,30c-5.58,2.36-8.9,8.36-9,14.29-.13,5.52,3.26,11.8,9,13.11a9.1,9.1,0,0,0,8.35-2.23,4.53,4.53,0,0,0,0-6.37,4.6,4.6,0,0,0-6.36,0Z" transform="translate(-1.97 -29.09)"/></svg>