<svg id="Layer_1" data-name="Layer 1" xmlns="http://www.w3.org/2000/svg" viewBox="0 0 122.45 93.46"><title>N</title><path d="M141.64,62.58a7.16,7.16,0,0,1,3-3.23A18,18,0,0,1,151,57.14,13.11,13.11,0,0,1,159,58.7a6.41,6.41,0,0,1,1.93,1.54,4,4,0,0,0,.25-1.4,5.07,5.07,0,0,0-2.39-4.16Q156.36,53,151.84,53a19.37,19.37,0,0,0-10.05,2.63,24.14,24.14,0,0,0-8,8.67q-3.62,6-7.49,18.86-1.32,4.36-5.34,21.43-3.12,13.09-4.16,16.91Q105.87,91.3,103.24,83T97.9,63.56L96,55.45c-2.93.69-6,1.27-9.34,1.72a13.89,13.89,0,0,1-.47,4.32h.31q-5.89,32.1-12.27,53-5.28,17.26-11,22.67-3.81,3.54-7.77,3.54-3.68,0-8.11-4.09-2.49-2.3-4.64-2.29a4,4,0,0,0-2.85,1.14,3.56,3.56,0,0,0-1.17,2.6,6.41,6.41,0,0,0,3.18,5.48,18.25,18.25,0,0,0,10.68,2.91,20.18,20.18,0,0,0,9.54-2.28,24.12,24.12,0,0,0,8-7.28q3.64-5,6.83-14.36,1-3,6.07-22.7t6.48-28.05l7.62,24q4.78,14.91,8.53,24.68,2.77,7.29,10.67,24.69l2.36-10.33q8-35.51,13.14-51.66t9.47-20.18Z" transform="translate(-38.69 -52.95)"/></svg>