<svg id="Layer_1" data-name="Layer 1" xmlns="http://www.w3.org/2000/svg" viewBox="0 0 132.2 132.2"><defs><style>.cls-1,.cls-10,.cls-2,.cls-3,.cls-4,.cls-5,.cls-6,.cls-7,.cls-8,.cls-9{stroke:#000;stroke-miterlimit:10;stroke-width:5px;}.cls-2{fill:silver;}.cls-3{fill:#404040;}.cls-4{fill:#828282;}.cls-5{fill:#424242;}.cls-6{fill:#bcbcbc;}.cls-7{fill:#7f7f7f;}.cls-8{fill:#bebebe;}.cls-9{fill:#797979;}.cls-10{fill:#fdfdfd;}</style></defs><title>O</title><path class="cls-1" d="M11.24,97.4v-.72a5.26,5.26,0,0,0,.12-1.81V91.06a5.31,5.31,0,0,0-.12-1.82v-.72a75.7,75.7,0,0,1,1.12-8.87A64,64,0,0,1,54.08,32.54a50.75,50.75,0,0,1,15.58-3.08c1.07,0,2.15-.09,3.23-.1h3.64A58.86,58.86,0,0,1,107.19,38a63.07,63.07,0,0,1,23.6,24.31,60.59,60.59,0,0,1,7.37,23.4,31,31,0,0,1,.16,4.42v5.7a56.68,56.68,0,0,1-5.17,23A61.68,61.68,0,0,1,119,139a62.71,62.71,0,0,1-35.93,17.2c-1.21.16-2.46.07-3.67.28h-.48c-.4-.25-.83-.07-1.25-.12s-1.1-.13-1.63.12h-2.4a4.16,4.16,0,0,0-2.16,0H69.8c-2.32-.34-4.66-.37-7-.82a65,65,0,0,1-13.59-4.21,62.85,62.85,0,0,1-14.87-9.11,63.55,63.55,0,0,1-16.12-19.86A64.85,64.85,0,0,1,11.75,103C11.45,101.12,11.6,99.24,11.24,97.4Z" transform="translate(-8.74 -26.74)"/><path class="cls-2" d="M72.67,29.45a.3.3,0,0,0,0-.21h4.08a.66.66,0,0,1,0,.2Z" transform="translate(-8.74 -26.74)"/><path class="cls-3" d="M11.45,90.9V95c-.08.09-.16.08-.22,0V90.92C11.3,90.82,11.37,90.81,11.45,90.9Z" transform="translate(-8.74 -26.74)"/><path class="cls-4" d="M138.25,94.06l0-2.43c.07-.1.14-.1.21,0V94C138.38,94.14,138.32,94.14,138.25,94.06Z" transform="translate(-8.74 -26.74)"/><path class="cls-5" d="M71.48,156.44a2.16,2.16,0,0,1,2.16,0Z" transform="translate(-8.74 -26.74)"/><path class="cls-6" d="M138.25,94.06a.25.25,0,0,0,.19,0V96l-.1,0h-.1Z" transform="translate(-8.74 -26.74)"/><path class="cls-7" d="M11.45,90.9l-.21,0V89.24C11.73,89.74,11.39,90.34,11.45,90.9Z" transform="translate(-8.74 -26.74)"/><path class="cls-8" d="M138.44,91.64h-.21V90a.27.27,0,0,1,.2,0Z" transform="translate(-8.74 -26.74)"/><path class="cls-4" d="M11.24,95l.22,0c-.08.55.26,1.16-.22,1.66Z" transform="translate(-8.74 -26.74)"/><path class="cls-3" d="M76,156.44c.53-.45,1.14-.19,1.71-.19a.12.12,0,0,1,0,.14s-.05.05-.07.05Z" transform="translate(-8.74 -26.74)"/><path class="cls-9" d="M77.72,156.44a.58.58,0,0,0,0-.19c.4,0,.85-.27,1.17.19Z" transform="translate(-8.74 -26.74)"/><path class="cls-10" d="M74.93,32.4A60.51,60.51,0,1,1,14.3,92.22,60.58,60.58,0,0,1,74.93,32.4Z" transform="translate(-8.74 -26.74)"/></svg>