<svg id="Layer_1" data-name="Layer 1" xmlns="http://www.w3.org/2000/svg" viewBox="0 0 79.95 90.13"><title>P</title><path d="M128.15,40.6q-9.34-4.73-31.3-4.73-24.82,0-39.19,6.48v6.28q8.72-7.23,22.49-7.24L68.42,100.6q-3.32,16.47-7,21.88A11.59,11.59,0,0,1,57.55,126h7.6A48.41,48.41,0,0,0,83.74,96L94.85,40.08q27.62,0,27.61,19.52a29,29,0,0,1-9,21.66Q104.51,90,91.26,90H90L87.4,94.19h1.86a56.31,56.31,0,0,0,25.68-5.66,43.79,43.79,0,0,0,16.15-14.15q6.42-9.18,6.42-18Q137.51,45.33,128.15,40.6Z" transform="translate(-57.55 -35.87)"/></svg>