<svg id="Layer_1" data-name="Layer 1" xmlns="http://www.w3.org/2000/svg" viewBox="0 0 38.09 45.73"><title>Q</title><path d="M77.16,93.42a.44.44,0,0,1,.36.26.92.92,0,0,1,.17.52q0,1.22-1.8,2.16a8.14,8.14,0,0,1-3.78.94,7.23,7.23,0,0,1-3.62-1.13A8.82,8.82,0,0,1,65.4,93.1a29.85,29.85,0,0,1-2.28-4.84c-.08-.21-.2-.31-.37-.31h-.17a21.35,21.35,0,0,1-4.1.36A19.91,19.91,0,0,1,48.73,86a16.78,16.78,0,0,1-6.65-6.76,19,19,0,0,1-.57-17.68,16.28,16.28,0,0,1,6.08-7.22A18.51,18.51,0,0,1,58,51.57q8,0,12.36,4.2a19.24,19.24,0,0,1,6.2,14.37A20.33,20.33,0,0,1,74.08,80a13.7,13.7,0,0,1-6.49,6.37c-.47.23-.71.48-.71.74A14.13,14.13,0,0,0,68,89.78a10.25,10.25,0,0,0,2.56,3.54,4.84,4.84,0,0,0,3.17,1.17A4.55,4.55,0,0,0,75.6,94,4.31,4.31,0,0,1,77.16,93.42Zm-24.78-9.2v-.65a5.19,5.19,0,0,1,1.5-3.8,5.24,5.24,0,0,1,3.89-1.52,7.55,7.55,0,0,1,4.46,1.43,11.05,11.05,0,0,1,3.36,3.95c.08.18.17.26.29.26.28,0,.92-.5,1.93-1.51a11.74,11.74,0,0,0,2.56-4.5,21.36,21.36,0,0,0,1-7q0-7.95-3.79-12.47a12.31,12.31,0,0,0-19-.12,16.6,16.6,0,0,0-3.79,11.22,28.93,28.93,0,0,0,.72,7,13.14,13.14,0,0,0,2,4.66,9.36,9.36,0,0,0,2.87,2.66,7.75,7.75,0,0,0,1.79.88l.1-.14Zm9.45,1a6.55,6.55,0,0,0-1.5-2.64,4.32,4.32,0,0,0-3.49-2q-2.49,0-2.49,2.88a3.09,3.09,0,0,0,.24,1.43c.15.29.55.5,1.19.64a17.47,17.47,0,0,0,3.25.2,13.86,13.86,0,0,0,2.41-.18C61.7,85.5,61.83,85.38,61.83,85.19Z" transform="translate(-39.61 -51.57)"/></svg>