<svg id="Layer_1" data-name="Layer 1" xmlns="http://www.w3.org/2000/svg" viewBox="0 0 109.94 128.36"><title>R</title><path d="M58.84,65.86A8.42,8.42,0,0,1,59,64.23H52.75a8.09,8.09,0,0,1-1.67-.16,5.17,5.17,0,0,1,.47,2.28V137.9a2.3,2.3,0,0,1-.07.42,6.13,6.13,0,0,1,0,.62v6.26C53.83,145,55.66,145,57,145a14,14,0,0,0,1.88.39Z" transform="translate(-29.44 -35.64)"/><path d="M137.07,153.48a8,8,0,0,0-.77-.39,8.73,8.73,0,0,1-1.79,4.7,9.3,9.3,0,0,1-1,1.4,7.54,7.54,0,0,1-5.3,2.19,5.61,5.61,0,0,1-2.89-.64,5.45,5.45,0,0,1-1.92-1.08,9,9,0,0,1-2.12-1.44c-.13-.13-.25-.26-.37-.4a18.69,18.69,0,0,1-2.2-2,45.71,45.71,0,0,1-7.13-11.37q-1.55-3.22-5.3-13-2.46-6.45-4.91-11.36a49.65,49.65,0,0,0-5.21-8.45A45.92,45.92,0,0,0,115.28,96.9a39.12,39.12,0,0,0,8.59-24.41q0-15.9-13.13-26.57Q98.07,35.64,80,35.64A90.48,90.48,0,0,0,62.14,37.1a59.42,59.42,0,0,0-17.5,6.67,37.38,37.38,0,0,0-10.37,8.3A19,19,0,0,0,29.44,64.5a11,11,0,0,0,2.34,7.07,7.45,7.45,0,0,0,6.1,2.91,7.8,7.8,0,0,0,5.53-2.15,6.86,6.86,0,0,0,2.27-4.46,7.2,7.2,0,0,1-4.26,1.28c-7.93,0-9.34-10.11-4.25-13.72a20.28,20.28,0,0,1,2.55-3.13,33.06,33.06,0,0,1,8.45-6.07A46.18,46.18,0,0,1,62,41.7,92.86,92.86,0,0,1,75,41q16,0,26.18,10t10.21,24.88A34.55,34.55,0,0,1,105.61,95a33.11,33.11,0,0,1-12.88,12,14.11,14.11,0,0,0-6.11-5,19.58,19.58,0,0,0-7.88-1.65,15.14,15.14,0,0,0-7.53,1.77q-3.69,2.07-3.69,5.6a6.4,6.4,0,0,0,3.77,6,17.71,17.71,0,0,0,8.38,1.69,27.61,27.61,0,0,0,4.73-.42,42.41,42.41,0,0,0,4.81-1.12,68.77,68.77,0,0,1,3.07,10.75q2.07,9.52,2.61,11.44a42.24,42.24,0,0,0,4.45,10.67,38.53,38.53,0,0,0,12,12.36A31.88,31.88,0,0,0,128.64,164a14.69,14.69,0,0,0,7.21-1.69q3.53-1.92,3.53-5.22A4,4,0,0,0,137.07,153.48ZM83.73,111a15.63,15.63,0,0,1-3.87.54,12.75,12.75,0,0,1-4.59-.69,3.13,3.13,0,0,1-2.3-3,2.87,2.87,0,0,1,1.68-2.61,7.92,7.92,0,0,1,3.83-.92,10.48,10.48,0,0,1,5.29,1.46,7.6,7.6,0,0,1,3.45,3.76A11.15,11.15,0,0,1,83.73,111Z" transform="translate(-29.44 -35.64)"/></svg>