<svg id="Layer_1" data-name="Layer 1" xmlns="http://www.w3.org/2000/svg" viewBox="0 0 67.91 104.37"><title>S</title><path d="M129.33,117.83a20.21,20.21,0,0,0-9.09-7.93q-5.68-2.5-18.16-4.27-9.1-1.34-12.52-2.25a18.21,18.21,0,0,1-6-2.79,13.92,13.92,0,0,1-4.19-5.08,16.12,16.12,0,0,1-1.62-7.37,22.52,22.52,0,0,1,2.68-10.51,16.41,16.41,0,0,1,7.89-7.54,26.53,26.53,0,0,1,11.22-2.4,28.13,28.13,0,0,1,13.33,3.24q6.13,3.25,6.41,5.44c0,.15,0,.33.06.53a6.74,6.74,0,0,1,5.48.93l.25.15a67.66,67.66,0,0,1,1.41-9.51l-.5-.85a54.27,54.27,0,0,0-13.15-4.48,65.41,65.41,0,0,0-13.36-1.51q-15.45,0-24.61,8.42T65.69,91.67a26.15,26.15,0,0,0,1.58,9.13A21.9,21.9,0,0,0,71.51,108a21,21,0,0,0,6.59,4.84A37.67,37.67,0,0,0,86,115.65q4,.91,11,2,7.26,1.2,10.93,2.22a20.18,20.18,0,0,1,6.52,3.11,13.78,13.78,0,0,1,4.45,5.53,19.27,19.27,0,0,1,1.58,8.11,22.17,22.17,0,0,1-3.31,12,21,21,0,0,1-9.27,8.07,31.81,31.81,0,0,1-13.44,2.75A41.75,41.75,0,0,1,83.78,158a27.36,27.36,0,0,1-8.54-3.63q-3.21-2.22-3.81-4.23a11.24,11.24,0,0,1-.23-1.12,7.58,7.58,0,0,1-3.24.68,7.91,7.91,0,0,1-2.36-.34c-.21,5.09-.46,8.59-.76,10.47l.42.92q11,5.22,25.6,5.22,17.43,0,29.66-10t12.23-25A24.14,24.14,0,0,0,129.33,117.83Z" transform="translate(-64.84 -61.63)"/></svg>