<svg id="Layer_1" data-name="Layer 1" xmlns="http://www.w3.org/2000/svg" viewBox="0 0 90.78 110.41"><title>T</title><path d="M71.71,54.24c0,.16,0,.32,0,.48v85c2-.13,3.62-.2,4.81-.2.71,0,1.84,0,3.37.14V54.24Z" transform="translate(-31.35 -29.28)"/><path d="M120.58,30.84a6.13,6.13,0,0,0-4.52-1.56,5.62,5.62,0,0,0-3.44,1.2,5.47,5.47,0,0,0-1.84,2.32,1.86,1.86,0,0,0-.24.8q0,.48,1.2.48a8.66,8.66,0,0,1,3.24.51c.82.35,1.24,1.19,1.24,2.52a4.87,4.87,0,0,1-3.08,4.56c-2,1-5,1.52-8.75,1.52a62.5,62.5,0,0,1-13.54-1.44q-6.51-1.44-12.75-2.88a58.38,58.38,0,0,0-13.18-1.44,52,52,0,0,0-23.26,5.08Q31.36,47.6,31.35,55.19a8.69,8.69,0,0,0,2,5.84,6.49,6.49,0,0,0,5.17,2.32,7.4,7.4,0,0,0,5.58-2.24,8,8,0,0,0,2.06-3.84A1.28,1.28,0,0,0,46,56.15q-.32-.39-1,0a3.6,3.6,0,0,1-1.2.64,6.91,6.91,0,0,1-2.08.24,10.9,10.9,0,0,1-1.84-.16A3.34,3.34,0,0,1,38,55.59a3.7,3.7,0,0,1-1-2.48,6.16,6.16,0,0,1,3-5.76q3-1.76,9.76-1.76A88,88,0,0,1,62,46.47q3.13.45,8.24,1.25a8.45,8.45,0,0,1,2.19.23c.79.2,1.62.22,2.41.43l.61.18a18.48,18.48,0,0,1,3.14.49l.61.22h.11a7.86,7.86,0,0,1,.87-.07,7.78,7.78,0,0,1,2,.25v0q4.3.89,7.07,1.24a49.71,49.71,0,0,0,6.36.36,35.61,35.61,0,0,0,18.24-4.84q8.31-4.83,8.32-10.84A6.1,6.1,0,0,0,120.58,30.84Z" transform="translate(-31.35 -29.28)"/></svg>