<svg id="Layer_1" data-name="Layer 1" xmlns="http://www.w3.org/2000/svg" viewBox="0 0 27.98 35.01"><title>Y</title><path d="M139,50" transform="translate(-46.99 -43.23)"/><path d="M61.25,63.1l0,0a6.82,6.82,0,0,1,2.65-2.73l.28-.21L75,43.23H70.26l-7.45,12.2A27.91,27.91,0,0,0,61.45,58h-.1a26.85,26.85,0,0,0-1.25-2.44L53,43.23h-5l10.79,17.4L47,78.24h5l8.3-13.41c.39-.78.67-1.36.83-1.73Z" transform="translate(-46.99 -43.23)"/><path d="M61.17,58.88l-2.83,3.68a1.52,1.52,0,0,0-.15,1.16,1.57,1.57,0,0,0,.69.89,1.47,1.47,0,0,0,1.16.15l.35-.15a1.4,1.4,0,0,0,.54-.54l2.83-3.67a1.52,1.52,0,0,0,.15-1.16,1.47,1.47,0,0,0-.69-.89,1.5,1.5,0,0,0-1.15-.16l-.36.16a1.45,1.45,0,0,0-.54.53Z" transform="translate(-46.99 -43.23)"/><path d="M61.74,58l-2.07,2.35a1.56,1.56,0,0,0-.44,1.06,1.5,1.5,0,0,0,2.56,1.06l2.08-2.35a1.6,1.6,0,0,0,.43-1.06A1.53,1.53,0,0,0,63.87,58a1.5,1.5,0,0,0-1.07-.44,1.47,1.47,0,0,0-1.06.44Z" transform="translate(-46.99 -43.23)"/></svg>