<svg id="Layer_1" data-name="Layer 1" xmlns="http://www.w3.org/2000/svg" viewBox="0 0 69.02 64.67"><title>Z</title><path d="M139,50" transform="translate(-42.3 -62.1)"/><path d="M57.29,76.72c-3.57,1.1-8.3,1.07-10.74-2.26-2.12-2.89-1.56-6.74,1.82-8.3s7.71-1,11.36-1l15.34.4,7.67.2a16.29,16.29,0,0,1,5.33.75c4.57,1.74,2.41,6.66.38,9.58-2.77,4-6,7.73-9,11.51S73.17,95.31,70,99.09Q59.22,111.9,47.85,124.2a1.51,1.51,0,0,0,1.46,2.51,304.62,304.62,0,0,1,60.58-11.66c1.91-.17,1.92-3.17,0-3a308.3,308.3,0,0,0-47.9,8c-4.52,1.13-9,2.38-13.47,3.71L50,126.32q11.52-12.46,22.45-25.47Q77.81,94.45,83,87.91q2.68-3.36,5.34-6.75a36.35,36.35,0,0,0,4.17-6,9.64,9.64,0,0,0,1.09-6.74A7,7,0,0,0,89.69,64a16.24,16.24,0,0,0-6-1.16c-2.86-.12-5.73-.15-8.6-.23l-17.32-.45c-4-.11-8.69-.32-12.13,2.13-4,2.82-4.29,8.19-1.46,12,3.22,4.29,9.12,4.83,13.93,3.35,1.84-.57,1.06-3.46-.8-2.89Z" transform="translate(-42.3 -62.1)"/></svg>